<?xml version="1.0" encoding="UTF-8"?>
<svg width="451px" height="391px" viewBox="0 0 451 391" version="1.1" xmlns="http://www.w3.org/2000/svg" xmlns:xlink="http://www.w3.org/1999/xlink">
    <!-- Generator: Sketch 48.2 (47327) - http://www.bohemiancoding.com/sketch -->
    <title>graphic_chapter2_big</title>
    <desc>Created with Sketch.</desc>
    <defs>
        <polygon id="path-1" points="0.23545098 0.814431373 350.855059 0.814431373 350.855059 351.436282 0.23545098 351.436282"></polygon>
        <polygon id="path-3" points="0 0.6986075 250.00396 0.6986075 250.00396 143.540682 0 143.540682"></polygon>
        <polygon id="path-5" points="0.17877294 0.3657 96.1954869 0.3657 96.1954869 115.575 0.17877294 115.575"></polygon>
    </defs>
    <g id="icons" stroke="none" stroke-width="1" fill="none" fill-rule="evenodd" transform="translate(-743.000000, -455.000000)">
        <g id="graphic_chapter2_big" transform="translate(743.000000, 455.000000)">
            <g id="Group-3" transform="translate(63.000000, 0.000000)">
                <mask id="mask-2" fill="white">
                    <use xlink:href="#path-1"></use>
                </mask>
                <g id="Clip-2"></g>
                <path d="M350.855059,176.124753 C350.855059,272.945459 272.365961,351.436282 175.545255,351.436282 C78.724549,351.436282 0.23545098,272.945459 0.23545098,176.124753 C0.23545098,79.3040471 78.724549,0.813223529 175.545255,0.813223529 C272.365961,0.813223529 350.855059,79.3040471 350.855059,176.124753" id="Fill-1" fill-opacity="0.5" fill="#E6E6E6" mask="url(#mask-2)"></path>
            </g>
            <polygon id="Fill-4" fill="#D2D2D2" points="331.498298 224 314 206.502553 331.498298 189 349 206.502553"></polygon>
            <polygon id="Fill-5" fill="#9B9B9B" points="290.497376 217 280 206.501749 290.497376 196 301 206.501749"></polygon>
            <polygon id="Fill-6" fill="#D2D2D2" points="0 143 250 143 250 107 0 107"></polygon>
            <g id="Group-23" transform="translate(0.000000, 46.000000)">
                <g id="Group-9" transform="translate(0.000000, 113.125000)">
                    <mask id="mask-4" fill="white">
                        <use xlink:href="#path-3"></use>
                    </mask>
                    <g id="Clip-8"></g>
                    <path d="M110.353212,112.014582 C108.21225,104.483232 107.144357,96.6275825 107.144357,88.4407325 L107.144357,50.3596325 L107.144357,50.3579075 C116.444861,50.3579075 125.395151,49.2418325 134.000403,47.0096825 C142.602205,44.7775325 150.855518,41.1515825 158.763792,36.1301075 C163.411456,33.1562075 167.971136,30.9689075 172.43593,29.5733825 C176.900724,28.1778575 181.922754,27.4809575 187.502021,27.4809575 C193.083014,27.4809575 198.105044,28.1778575 202.569838,29.5733825 C207.034632,30.9689075 211.590861,33.1562075 216.241976,36.1301075 C224.145075,41.1515825 232.400113,44.7775325 241.005365,47.0096825 C243.939915,47.7721325 246.9728,48.2240825 249.988434,48.7243325 C249.99706,48.7260575 250.00396,48.7208825 250.00396,48.7122575 L250.00396,0.6986075 L-0.000345038168,0.6986075 L-0.000345038168,143.540682 L125.257136,143.540682 C123.043716,140.314932 121.00454,136.990857 119.14306,133.566732 C115.420098,126.732282 112.488998,119.547657 110.353212,112.014582" id="Fill-7" fill="#D2D2D2" mask="url(#mask-4)"></path>
                </g>
                <path d="M206.197397,164.040082 C200.519794,160.327882 194.291855,158.461432 187.503229,158.461432 C180.711153,158.461432 174.479763,160.327882 168.809061,164.040082 C162.29474,168.418132 155.297366,171.906082 147.811763,174.502207 C141.778771,176.601532 135.673321,178.216132 129.493687,179.347732 C126.911076,179.818657 125.003015,182.009407 125.003015,184.633132 L125.003015,201.565732 C125.003015,211.242982 126.816191,220.378582 130.442542,228.977707 C134.070618,237.582007 138.835595,245.577382 144.742649,252.969007 C150.646252,260.362357 157.341718,267.127807 164.832496,273.265357 C171.369244,278.626657 177.959473,283.454932 184.606634,287.750182 C186.366328,288.888682 188.64013,288.886957 190.398099,287.750182 C197.041809,283.454932 203.632038,278.626657 210.173962,273.265357 C217.659565,267.127807 224.355031,260.362357 230.263809,252.969007 C236.165687,245.577382 240.93584,237.582007 244.562191,228.977707 C248.190267,220.378582 250.003443,211.242982 250.003443,201.565732 L250.003443,184.633132 C250.003443,182.009407 248.093656,179.818657 245.511046,179.347732 C239.329687,178.216132 233.224237,176.603257 227.192969,174.502207 C219.703916,171.906082 212.706542,168.418132 206.197397,164.040082" id="Fill-10" fill="#0078D4"></path>
                <path d="M225.870266,229.389637 C225.870266,239.223862 217.898159,247.195087 208.062846,247.195087 C198.227533,247.195087 190.253701,239.223862 190.253701,229.389637 C190.253701,219.555412 198.227533,211.584187 208.062846,211.584187 C217.898159,211.584187 225.870266,219.555412 225.870266,229.389637" id="Fill-12" fill="#025385"></path>
                <g id="Group-16" transform="translate(172.519084, 229.425000)">
                    <mask id="mask-6" fill="white">
                        <use xlink:href="#path-5"></use>
                    </mask>
                    <g id="Clip-15"></g>
                    <path d="M89.4116382,35.7282 C85.6645237,35.7282 82.6264626,38.765925 82.6264626,42.512625 L82.6264626,54.83775 L78.2772565,54.83775 L78.2772565,32.74395 C78.2772565,28.99725 75.2409206,25.96125 71.4938061,25.96125 C67.7484168,25.96125 64.7103557,28.99725 64.7103557,32.74395 L64.7103557,54.83775 L60.3611496,54.83775 L60.3611496,32.74395 C60.3611496,28.99725 57.3230885,25.96125 53.5776992,25.96125 C49.8305847,25.96125 46.7925237,28.99725 46.7925237,32.74395 L46.7925237,54.83775 L42.3691344,54.83775 L42.3691344,7.1484 C42.3691344,3.403425 39.3327985,0.3657 35.585684,0.3657 C31.8385695,0.3657 28.8971191,3.403425 28.8971191,7.1484 L28.8971191,54.83775 L28.8971191,72.420675 L13.5411954,65.934675 C13.5411954,65.934675 3.74728702,62.66925 1.23540916,66.6333 C-1.2764687,70.59735 1.47866107,73.10205 1.47866107,73.10205 L38.3183863,109.91355 C47.3463099,117.498375 67.4361573,115.269675 67.4361573,115.269675 C96.6436382,112.313025 96.1950885,93.50535 96.1950885,93.50535 L96.1950885,55.43805 L96.1950885,54.83775 L96.1950885,42.512625 C96.1950885,38.765925 93.1570275,35.7282 89.4116382,35.7282" id="Fill-14" fill="#737373" mask="url(#mask-6)"></path>
                </g>
                <path d="M428.989922,39.9901575 C428.989922,24.5841825 416.439159,12.1055325 400.950395,12.1055325 C394.674151,12.1055325 388.79125,14.0582325 384.276426,17.5686075 C378.198579,7.0374825 366.634624,0.0167325 353.693968,0.0167325 C334.473617,0.0167325 318.783006,15.4175325 318.391388,34.3338825 C302.512731,34.3338825 289.958518,46.8159825 289.958518,62.4134325 C289.958518,77.8194075 302.512731,90.2980575 317.999769,90.2980575 L427.813342,90.2980575 C440.364105,90.2980575 450.365037,80.3517075 450.365037,67.8696075 C450.365037,55.7825325 440.564227,45.8396325 428.403357,45.4463325 C428.796701,43.6920075 428.989922,41.9411325 428.989922,39.9901575 Z" id="Fill-17" fill="#E6E6E6"></path>
                <polygon id="Stroke-19" stroke="#E6E6E6" stroke-width="2" points="320.461789 139.036035 306.801728 152.694585 293.141667 139.036035 306.801728 125.377485"></polygon>
                <polygon id="Fill-21" fill="#E6E6E6" points="324.238232 184.930522 306.801728 202.365097 289.363499 184.930522 306.801728 167.495947"></polygon>
            </g>
        </g>
    </g>
</svg>