<?xml version="1.0" encoding="UTF-8"?>
<svg width="458px" height="405px" viewBox="0 0 458 405" version="1.1" xmlns="http://www.w3.org/2000/svg" xmlns:xlink="http://www.w3.org/1999/xlink">
    <!-- Generator: Sketch 48.2 (47327) - http://www.bohemiancoding.com/sketch -->
    <title>graphic01_Big</title>
    <desc>Created with Sketch.</desc>
    <defs></defs>
    <g id="icons" stroke="none" stroke-width="1" fill="none" fill-rule="evenodd" transform="translate(-95.000000, -442.000000)">
        <g id="graphic01_Big" transform="translate(95.000000, 442.000000)">
            <path d="M429,202.500891 C429,314.338495 337.889393,405 225.5,405 C113.108816,405 22,314.338495 22,202.500891 C22,90.6615055 113.108816,0 225.5,0 C337.889393,0 429,90.6615055 429,202.500891" id="Fill-1" fill-opacity="0.5" fill="#E6E6E6"></path>
            <path d="M24,109 L24,306.181496 L151.628014,306.181496 L151.628014,328.096066 L107.235505,328.096066 L107.235505,350 L218.216778,350 L218.216778,328.096066 L173.824269,328.096066 L173.824269,306.181496 L307,306.181496 L307,109 L24,109 Z M46.1962545,284.277562 L284.803745,284.277562 L284.803745,130.91457 L46.1962545,130.91457 L46.1962545,284.277562 Z" id="Fill-3" fill="#737373"></path>
            <polygon id="Fill-4" fill="#FFFFFF" points="39 293 293 293 293 124 39 124"></polygon>
            <g id="Group-34" transform="translate(0.000000, 90.000000)">
                <path d="M66.3969908,239.087614 L11.0317251,239.087614 L11.0317251,161.38533 L51.2952585,161.38533 L66.3969908,161.38533 L66.3969908,239.087614 Z M42.8417951,256.769032 C36.6873158,261.314668 29.9925306,254.352276 34.6727973,248.50408 C40.6412109,244.040188 47.3699889,250.686269 42.8417951,256.769032 Z M26.1352465,151.938654 L51.2952585,151.938654 C51.9196519,151.938654 52.461747,152.850269 52.461747,154.010668 C52.461747,155.211938 51.9196519,156.123553 51.2952585,156.123553 L26.1352465,156.123553 C25.509064,156.123553 25.0099071,155.211938 25.0099071,154.010668 C25.0099071,152.850269 25.509064,151.938654 26.1352465,151.938654 Z" id="Fill-5" fill="#025385"></path>
                <polygon id="Fill-7" fill="#025385" points="61.9573571 157.512655 61.9573571 235.214939 6.59209133 235.214939 6.59209133 157.512655 46.8538357 157.512655"></polygon>
                <path d="M46.8540146,148.065268 C47.4801971,148.065268 48.0222922,148.976883 48.0222922,150.137282 C48.0222922,151.338552 47.4801971,152.250167 46.8540146,152.250167 L21.6957916,152.250167 C21.0696092,152.250167 20.5686632,151.338552 20.5686632,150.137282 C20.5686632,148.976883 21.0696092,148.065268 21.6957916,148.065268 L46.8540146,148.065268 Z" id="Fill-9" fill="#025385"></path>
                <path d="M30.2324479,244.630339 C36.2026506,240.166447 42.9296395,246.814305 38.4014456,252.895291 C32.2469664,257.440926 25.5521812,250.478534 30.2324479,244.630339" id="Fill-11" fill="#025385"></path>
                <path d="M61.9573571,235.214228 L6.59209133,235.214228 L6.59209133,157.511944 L46.8538357,157.511944 L61.9573571,157.511944 L61.9573571,235.214228 Z M38.4021613,252.895647 C32.2476821,257.441282 25.5528968,250.47889 30.2331636,244.630694 C36.2015771,240.166802 42.9303552,246.812883 38.4021613,252.895647 Z M21.6956127,148.065268 L46.8538357,148.065268 C47.4800181,148.065268 48.0221133,148.976883 48.0221133,150.137282 C48.0221133,151.338552 47.4800181,152.24839 46.8538357,152.24839 L21.6956127,152.24839 C21.0694303,152.24839 20.5684843,151.338552 20.5684843,150.137282 C20.5684843,148.976883 21.0694303,148.065268 21.6956127,148.065268 Z M68.5376404,142.718194 L46.8538357,142.718194 L0.0529571468,142.718194 C0.0243316621,142.718194 0.00107345568,142.743072 0.00107345568,142.771505 L0.00107345568,262.967836 C0.00107345568,262.974944 0.00465164128,262.980275 0.0118080125,262.980275 L68.5376404,262.980275 C68.5447967,262.980275 68.550164,262.974944 68.550164,262.967836 L68.550164,157.511944 L68.550164,142.730633 C68.550164,142.723525 68.5447967,142.718194 68.5376404,142.718194 Z" id="Fill-13" fill="#0078D4"></path>
                <polygon id="Fill-15" fill="#FFFFFF" points="428.338694 131.966114 428.338694 224.056986 341.721555 224.056986 341.721555 131.966114 389.440238 131.966114"></polygon>
                <path d="M341.721555,224.055742 L428.338694,224.055742 L428.338694,131.96487 L389.431293,131.96487 L341.721555,131.96487 L341.721555,224.055742 Z M333.965838,114.434499 L389.431293,114.434499 L436.13556,114.434499 C436.13556,114.434499 436.157029,114.434499 436.157029,114.454046 L436.157029,131.96487 L436.157029,256.953843 L436.13556,256.973391 L333.924689,256.973391 L333.90322,256.953843 L333.90322,114.496695 C333.90322,114.454046 333.944369,114.434499 333.965838,114.434499 Z" id="Fill-17" fill="#D2D2D2"></path>
                <path d="M380.239471,235.217604 C387.315333,229.925618 395.289319,237.804955 389.922041,245.014354 C382.62791,250.400523 374.693283,242.148009 380.239471,235.217604" id="Fill-19" fill="#FFFFFF"></path>
                <g id="Group-25" transform="translate(330.139356, 0.000000)">
                    <polygon id="Fill-21" fill="#FFFFFF" points="6.40528023 60.6698351 6.40528023 6.52382162 121.175583 6.52382162 121.175583 60.6698351 32.3829077 60.6698351 18.5174385 74.4417946 18.5174385 60.6698351"></polygon>
                    <path d="M0.358325477,66.6760088 L0.358325477,0.519069595 L127.240787,0.519069595 L127.240787,66.6760088 L34.9414893,66.6760088 L12.4704837,88.9972453 L12.4704837,66.6760088 L0.358325477,66.6760088 Z M121.175762,6.52364392 L6.40545914,6.52364392 L6.40545914,60.6696574 L18.5176174,60.6696574 L18.5176174,74.4416169 L32.3830866,60.6696574 L121.175762,60.6696574 L121.175762,6.52364392 Z" id="Fill-23" fill="#E6E6E6"></path>
                </g>
                <path d="M356.17492,38.7901899 C355.323312,38.7901899 354.534322,38.6338115 353.809739,38.3192777 C353.085157,38.008298 352.446451,37.5764804 351.893621,37.0291561 C351.34258,36.4800547 350.907831,35.8456561 350.592951,35.1241831 C350.276281,34.4044872 350.118841,33.6208182 350.118841,32.7749534 C350.118841,31.9290885 350.276281,31.1454196 350.592951,30.4239466 C350.907831,29.7060277 351.34258,29.0716291 351.893621,28.5225277 C352.446451,27.9734264 353.085157,27.5433858 353.809739,27.228852 C354.534322,26.9160953 355.323312,26.7597169 356.17492,26.7597169 C357.026528,26.7597169 357.815518,26.9160953 358.540101,27.228852 C359.266472,27.5433858 359.905179,27.9734264 360.458008,28.5225277 C361.009049,29.0716291 361.442009,29.7060277 361.75689,30.4239466 C362.073559,31.1454196 362.230999,31.9290885 362.230999,32.7749534 C362.230999,33.6208182 362.073559,34.4044872 361.75689,35.1241831 C361.442009,35.8456561 361.009049,36.4800547 360.458008,37.0291561 C359.905179,37.5764804 359.266472,38.008298 358.540101,38.3192777 C357.815518,38.6338115 357.026528,38.7901899 356.17492,38.7901899" id="Fill-26" fill="#E6E6E6"></path>
                <path d="M380.399237,38.7901899 C379.547628,38.7901899 378.758639,38.6338115 378.032267,38.3192777 C377.309473,38.008298 376.670767,37.5764804 376.117938,37.0291561 C375.566897,36.4800547 375.132147,35.8456561 374.817267,35.1241831 C374.500598,34.4044872 374.343158,33.6208182 374.343158,32.7749534 C374.343158,31.9290885 374.500598,31.1454196 374.817267,30.4239466 C375.132147,29.7060277 375.566897,29.0716291 376.117938,28.5225277 C376.670767,27.9734264 377.309473,27.5433858 378.032267,27.228852 C378.758639,26.9160953 379.547628,26.7597169 380.399237,26.7597169 C381.250845,26.7597169 382.039835,26.9160953 382.764417,27.228852 C383.490789,27.5433858 384.129495,27.9734264 384.682325,28.5225277 C385.233365,29.0716291 385.666326,29.7060277 385.981206,30.4239466 C386.297876,31.1454196 386.455316,31.9290885 386.455316,32.7749534 C386.455316,33.6208182 386.297876,34.4044872 385.981206,35.1241831 C385.666326,35.8456561 385.233365,36.4800547 384.682325,37.0291561 C384.129495,37.5764804 383.490789,38.008298 382.764417,38.3192777 C382.039835,38.6338115 381.250845,38.7901899 380.399237,38.7901899" id="Fill-28" fill="#E6E6E6"></path>
                <path d="M404.623732,38.7901899 C403.772124,38.7901899 402.983134,38.6338115 402.256762,38.3192777 C401.533969,38.008298 400.895263,37.5764804 400.342433,37.0291561 C399.791392,36.4800547 399.356643,35.8456561 399.041762,35.1241831 C398.725093,34.4044872 398.567653,33.6208182 398.567653,32.7749534 C398.567653,31.9290885 398.725093,31.1454196 399.041762,30.4239466 C399.356643,29.7060277 399.791392,29.0716291 400.342433,28.5225277 C400.895263,27.9734264 401.533969,27.5433858 402.256762,27.228852 C402.983134,26.9160953 403.772124,26.7597169 404.623732,26.7597169 C405.47534,26.7597169 406.26433,26.9160953 406.988913,27.228852 C407.715284,27.5433858 408.353991,27.9734264 408.90682,28.5225277 C409.457861,29.0716291 409.890821,29.7060277 410.205702,30.4239466 C410.522371,31.1454196 410.679811,31.9290885 410.679811,32.7749534 C410.679811,33.6208182 410.522371,34.4044872 410.205702,35.1241831 C409.890821,35.8456561 409.457861,36.4800547 408.90682,37.0291561 C408.353991,37.5764804 407.715284,38.008298 406.988913,38.3192777 C406.26433,38.6338115 405.47534,38.7901899 404.623732,38.7901899" id="Fill-30" fill="#E6E6E6"></path>
                <path d="M428.848049,38.7901899 C427.994651,38.7901899 427.20745,38.6338115 426.481079,38.3192777 C425.758285,38.008298 425.119579,37.5764804 424.566749,37.0291561 C424.015709,36.4800547 423.580959,35.8456561 423.266079,35.1241831 C422.94941,34.4044872 422.791969,33.6208182 422.791969,32.7749534 C422.791969,31.9290885 422.94941,31.1454196 423.266079,30.4239466 C423.580959,29.7060277 424.015709,29.0716291 424.566749,28.5225277 C425.119579,27.9734264 425.758285,27.5433858 426.481079,27.228852 C427.20745,26.9160953 427.994651,26.7597169 428.848049,26.7597169 C429.699657,26.7597169 430.488647,26.9160953 431.213229,27.228852 C431.939601,27.5433858 432.578307,27.9734264 433.129348,28.5225277 C433.682177,29.0716291 434.115138,29.7060277 434.430018,30.4239466 C434.746687,31.1454196 434.904128,31.9290885 434.904128,32.7749534 C434.904128,33.6208182 434.746687,34.4044872 434.430018,35.1241831 C434.115138,35.8456561 433.682177,36.4800547 433.129348,37.0291561 C432.578307,37.5764804 431.939601,38.008298 431.213229,38.3192777 C430.488647,38.6338115 429.699657,38.7901899 428.848049,38.7901899" id="Fill-32" fill="#E6E6E6"></path>
            </g>
        </g>
    </g>
</svg>