<?xml version="1.0" encoding="UTF-8"?>
<svg width="235px" height="208px" viewBox="0 0 235 208" version="1.1" xmlns="http://www.w3.org/2000/svg" xmlns:xlink="http://www.w3.org/1999/xlink">
    <!-- Generator: Sketch 48.2 (47327) - http://www.bohemiancoding.com/sketch -->
    <title>graphic01</title>
    <desc>Created with Sketch.</desc>
    <defs></defs>
    <g id="icons" stroke="none" stroke-width="1" fill="none" fill-rule="evenodd" transform="translate(-89.000000, -81.000000)">
        <g id="graphic01" transform="translate(89.000000, 81.000000)">
            <path d="M220,104.000458 C220,161.438042 173.213472,208 115.5,208 C57.785608,208 11,161.438042 11,104.000458 C11,46.5619584 57.785608,0 115.5,0 C173.213472,0 220,46.5619584 220,104.000458" id="Fill-1" fill="#FFFFFF"></path>
            <path d="M12,56 L12,157.45438 L77.3924456,157.45438 L77.3924456,168.729926 L54.6471671,168.729926 L54.6471671,180 L111.510363,180 L111.510363,168.729926 L88.7650848,168.729926 L88.7650848,157.45438 L157,157.45438 L157,56 L12,56 Z M23.3726392,146.184306 L145.627361,146.184306 L145.627361,67.2755465 L23.3726392,67.2755465 L23.3726392,146.184306 Z" id="Fill-3" fill="#737373"></path>
            <polygon id="Fill-4" fill="#FFFFFF" points="19 151 149 151 149 64 19 64"></polygon>
            <g id="Group-34" transform="translate(0.000000, 46.000000)">
                <path d="M34.068325,122.725581 L5.66038297,122.725581 L5.66038297,82.8403784 L26.3196196,82.8403784 L34.068325,82.8403784 L34.068325,122.725581 Z M21.9821438,131.801595 C18.8242778,134.134905 15.3891805,130.561054 17.7906275,127.559128 C20.8530231,125.267777 24.305562,128.679264 21.9821438,131.801595 Z M13.4100064,77.9913243 L26.3196196,77.9913243 C26.6399961,77.9913243 26.9181453,78.4592635 26.9181453,79.0549054 C26.9181453,79.671527 26.6399961,80.1394662 26.3196196,80.1394662 L13.4100064,80.1394662 C13.0887119,80.1394662 12.8325943,79.671527 12.8325943,79.0549054 C12.8325943,78.4592635 13.0887119,77.9913243 13.4100064,77.9913243 Z" id="Fill-5" fill="#025385"></path>
                <polygon id="Fill-7" fill="#025385" points="31.790347 80.8525034 31.790347 120.737706 3.38240494 120.737706 3.38240494 80.8525034 24.0407235 80.8525034"></polygon>
                <path d="M24.0408153,76.0030845 C24.3621098,76.0030845 24.6402591,76.4710236 24.6402591,77.0666655 C24.6402591,77.6832872 24.3621098,78.1512264 24.0408153,78.1512264 L11.1321202,78.1512264 C10.8108257,78.1512264 10.5537901,77.6832872 10.5537901,77.0666655 C10.5537901,76.4710236 10.8108257,76.0030845 11.1321202,76.0030845 L24.0408153,76.0030845 Z" id="Fill-9" fill="#025385"></path>
                <path d="M15.5122822,125.570706 C18.5755958,123.279355 22.0272168,126.691753 19.7037985,129.813172 C16.5459326,132.146483 13.1108353,128.572632 15.5122822,125.570706" id="Fill-11" fill="#025385"></path>
                <path d="M31.790347,120.737341 L3.38240494,120.737341 L3.38240494,80.8521385 L24.0407235,80.8521385 L31.790347,80.8521385 L31.790347,120.737341 Z M19.7041657,129.813355 C16.5462997,132.146666 13.1112025,128.572814 15.5126494,125.570889 C18.575045,123.279537 22.027584,126.691024 19.7041657,129.813355 Z M11.1320284,76.0030845 L24.0407235,76.0030845 C24.362018,76.0030845 24.6401673,76.4710236 24.6401673,77.0666655 C24.6401673,77.6832872 24.362018,78.1503142 24.0407235,78.1503142 L11.1320284,78.1503142 C10.8107339,78.1503142 10.5536983,77.6832872 10.5536983,77.0666655 C10.5536983,76.4710236 10.8107339,76.0030845 11.1320284,76.0030845 Z M35.1666932,73.2583885 L24.0407235,73.2583885 L0.0271723352,73.2583885 C0.0124845864,73.2583885 0.000550790578,73.2711588 0.000550790578,73.2857534 L0.000550790578,134.98349 C0.000550790578,134.987139 0.00238675917,134.989875 0.00605869635,134.989875 L35.1666932,134.989875 C35.1703651,134.989875 35.1731191,134.987139 35.1731191,134.98349 L35.1731191,80.8521385 L35.1731191,73.2647736 C35.1731191,73.261125 35.1703651,73.2583885 35.1666932,73.2583885 Z" id="Fill-13" fill="#0078D4"></path>
                <polygon id="Fill-15" fill="#FFFFFF" points="219.780771 67.7392601 219.780771 115.01024 175.337479 115.01024 175.337479 67.7392601 199.821956 67.7392601"></polygon>
                <path d="M175.337479,115.009601 L219.780771,115.009601 L219.780771,67.7386216 L199.817366,67.7386216 L175.337479,67.7386216 L175.337479,115.009601 Z M171.358017,58.7401419 L199.817366,58.7401419 L223.781346,58.7401419 C223.781346,58.7401419 223.792362,58.7401419 223.792362,58.7501757 L223.792362,67.7386216 L223.792362,131.896459 L223.781346,131.906493 L171.336904,131.906493 L171.325888,131.896459 L171.325888,58.7720676 C171.325888,58.7501757 171.347001,58.7401419 171.358017,58.7401419 Z" id="Fill-17" fill="#D2D2D2"></path>
                <path d="M195.101038,120.739074 C198.731666,118.022655 202.823122,122.067182 200.069169,125.767824 C196.326547,128.532588 192.255287,124.296507 195.101038,120.739074" id="Fill-19" fill="#FFFFFF"></path>
                <g id="Group-25" transform="translate(168.909110, 0.000000)">
                    <polygon id="Fill-21" fill="#FFFFFF" points="3.77208927 31.1423108 3.77208927 3.34872973 62.6607819 3.34872973 62.6607819 31.1423108 17.1012213 31.1423108 9.98684296 38.2115676 9.98684296 31.1423108"></polygon>
                    <path d="M0.669394149,34.2253277 L0.669394149,0.266442568 L65.7728404,0.266442568 L65.7728404,34.2253277 L18.4140306,34.2253277 L6.88414783,45.6829966 L6.88414783,34.2253277 L0.669394149,34.2253277 Z M62.6608737,3.34863851 L3.77218107,3.34863851 L3.77218107,31.1422196 L9.98693475,31.1422196 L9.98693475,38.2114764 L17.101313,31.1422196 L62.6608737,31.1422196 L62.6608737,3.34863851 Z" id="Fill-23" fill="#E5E5E5"></path>
                </g>
                <path d="M182.753507,19.9113142 C182.316547,19.9113142 181.911715,19.8310439 181.539932,19.6695912 C181.168148,19.5099628 180.840428,19.2883074 180.556771,19.0073615 C180.274031,18.7255034 180.050961,18.3998615 179.889396,18.0295236 C179.726913,17.660098 179.64613,17.2578345 179.64613,16.8236453 C179.64613,16.3894561 179.726913,15.9871926 179.889396,15.6168547 C180.050961,15.2483412 180.274031,14.9226993 180.556771,14.6408412 C180.840428,14.3589831 181.168148,14.1382399 181.539932,13.9767872 C181.911715,13.8162466 182.316547,13.7359764 182.753507,13.7359764 C183.190468,13.7359764 183.595299,13.8162466 183.967082,13.9767872 C184.339784,14.1382399 184.667504,14.3589831 184.951161,14.6408412 C185.233901,14.9226993 185.456053,15.2483412 185.617618,15.6168547 C185.780101,15.9871926 185.860884,16.3894561 185.860884,16.8236453 C185.860884,17.2578345 185.780101,17.660098 185.617618,18.0295236 C185.456053,18.3998615 185.233901,18.7255034 184.951161,19.0073615 C184.667504,19.2883074 184.339784,19.5099628 183.967082,19.6695912 C183.595299,19.8310439 183.190468,19.9113142 182.753507,19.9113142" id="Fill-26" fill="#E5E5E5"></path>
                <path d="M195.183014,19.9113142 C194.746054,19.9113142 194.341223,19.8310439 193.968521,19.6695912 C193.597656,19.5099628 193.269935,19.2883074 192.986278,19.0073615 C192.703539,18.7255034 192.480469,18.3998615 192.318903,18.0295236 C192.15642,17.660098 192.075638,17.2578345 192.075638,16.8236453 C192.075638,16.3894561 192.15642,15.9871926 192.318903,15.6168547 C192.480469,15.2483412 192.703539,14.9226993 192.986278,14.6408412 C193.269935,14.3589831 193.597656,14.1382399 193.968521,13.9767872 C194.341223,13.8162466 194.746054,13.7359764 195.183014,13.7359764 C195.619975,13.7359764 196.024806,13.8162466 196.39659,13.9767872 C196.769291,14.1382399 197.097012,14.3589831 197.380669,14.6408412 C197.663408,14.9226993 197.88556,15.2483412 198.047125,15.6168547 C198.209609,15.9871926 198.290391,16.3894561 198.290391,16.8236453 C198.290391,17.2578345 198.209609,17.660098 198.047125,18.0295236 C197.88556,18.3998615 197.663408,18.7255034 197.380669,19.0073615 C197.097012,19.2883074 196.769291,19.5099628 196.39659,19.6695912 C196.024806,19.8310439 195.619975,19.9113142 195.183014,19.9113142" id="Fill-28" fill="#E5E5E5"></path>
                <path d="M207.612614,19.9113142 C207.175653,19.9113142 206.770822,19.8310439 206.39812,19.6695912 C206.027255,19.5099628 205.699534,19.2883074 205.415877,19.0073615 C205.133138,18.7255034 204.910068,18.3998615 204.748503,18.0295236 C204.586019,17.660098 204.505237,17.2578345 204.505237,16.8236453 C204.505237,16.3894561 204.586019,15.9871926 204.748503,15.6168547 C204.910068,15.2483412 205.133138,14.9226993 205.415877,14.6408412 C205.699534,14.3589831 206.027255,14.1382399 206.39812,13.9767872 C206.770822,13.8162466 207.175653,13.7359764 207.612614,13.7359764 C208.049574,13.7359764 208.454405,13.8162466 208.826189,13.9767872 C209.19889,14.1382399 209.526611,14.3589831 209.810268,14.6408412 C210.093007,14.9226993 210.315159,15.2483412 210.476725,15.6168547 C210.639208,15.9871926 210.71999,16.3894561 210.71999,16.8236453 C210.71999,17.2578345 210.639208,17.660098 210.476725,18.0295236 C210.315159,18.3998615 210.093007,18.7255034 209.810268,19.0073615 C209.526611,19.2883074 209.19889,19.5099628 208.826189,19.6695912 C208.454405,19.8310439 208.049574,19.9113142 207.612614,19.9113142" id="Fill-30" fill="#E5E5E5"></path>
                <path d="M220.042121,19.9113142 C219.604242,19.9113142 219.200329,19.8310439 218.827628,19.6695912 C218.456762,19.5099628 218.129042,19.2883074 217.845385,19.0073615 C217.562645,18.7255034 217.339575,18.3998615 217.17801,18.0295236 C217.015527,17.660098 216.934744,17.2578345 216.934744,16.8236453 C216.934744,16.3894561 217.015527,15.9871926 217.17801,15.6168547 C217.339575,15.2483412 217.562645,14.9226993 217.845385,14.6408412 C218.129042,14.3589831 218.456762,14.1382399 218.827628,13.9767872 C219.200329,13.8162466 219.604242,13.7359764 220.042121,13.7359764 C220.479081,13.7359764 220.883913,13.8162466 221.255696,13.9767872 C221.628398,14.1382399 221.956118,14.3589831 222.238857,14.6408412 C222.522515,14.9226993 222.744667,15.2483412 222.906232,15.6168547 C223.068715,15.9871926 223.149498,16.3894561 223.149498,16.8236453 C223.149498,17.2578345 223.068715,17.660098 222.906232,18.0295236 C222.744667,18.3998615 222.522515,18.7255034 222.238857,19.0073615 C221.956118,19.2883074 221.628398,19.5099628 221.255696,19.6695912 C220.883913,19.8310439 220.479081,19.9113142 220.042121,19.9113142" id="Fill-32" fill="#E5E5E5"></path>
            </g>
        </g>
    </g>
</svg>