<?xml version="1.0" encoding="UTF-8"?>
<svg width="238px" height="207px" viewBox="0 0 238 207" version="1.1" xmlns="http://www.w3.org/2000/svg" xmlns:xlink="http://www.w3.org/1999/xlink">
    <!-- Generator: Sketch 48.2 (47327) - http://www.bohemiancoding.com/sketch -->
    <title>graphic2</title>
    <desc>Created with Sketch.</desc>
    <defs>
        <polygon id="path-1" points="0.649313725 0.428039216 184.923824 0.428039216 184.923824 184.703728 0.649313725 184.703728"></polygon>
        <polygon id="path-3" points="0 0.896077 131.639253 0.896077 131.639253 76.250447 0 76.250447"></polygon>
        <polygon id="path-5" points="0.0941326544 0.19292 50.6516059 0.19292 50.6516059 60.97 0.0941326544 60.97"></polygon>
    </defs>
    <g id="icons" stroke="none" stroke-width="1" fill="none" fill-rule="evenodd" transform="translate(-481.000000, -81.000000)">
        <g id="graphic2" transform="translate(481.000000, 81.000000)">
            <g id="Group-3" transform="translate(33.000000, 0.000000)">
                <mask id="mask-2" fill="white">
                    <use xlink:href="#path-1"></use>
                </mask>
                <g id="Clip-2"></g>
                <path d="M184.923824,92.5655662 C184.923824,143.451449 143.672451,184.703728 92.7865686,184.703728 C41.9006863,184.703728 0.649313725,143.451449 0.649313725,92.5655662 C0.649313725,41.6796838 41.9006863,0.427404412 92.7865686,0.427404412 C143.672451,0.427404412 184.923824,41.6796838 184.923824,92.5655662" id="Fill-1" fill="#FFFFFF" mask="url(#mask-2)"></path>
            </g>
            <polygon id="Fill-4" fill="#D2D2D2" points="174.499076 119 165 109.501386 174.499076 100 184 109.501386"></polygon>
            <polygon id="Fill-5" fill="#737373" points="152.498626 115 147 109.500916 152.498626 104 158 109.500916"></polygon>
            <polygon id="Fill-6" fill="#D2D2D2" points="0 76 132 76 132 57 0 57"></polygon>
            <g id="Group-23" transform="translate(0.000000, 25.000000)">
                <g id="Group-9" transform="translate(0.000000, 59.150000)">
                    <mask id="mask-4" fill="white">
                        <use xlink:href="#path-3"></use>
                    </mask>
                    <g id="Clip-8"></g>
                    <path d="M58.1063374,59.619287 C56.9790168,55.646227 56.4167191,51.502087 56.4167191,47.183227 L56.4167191,27.094067 L56.4167191,27.093157 C61.313887,27.093157 66.0266504,26.504387 70.5577344,25.326847 C75.0870015,24.149307 79.4327725,22.236487 83.5968641,19.587477 C86.0440855,18.018637 88.4449786,16.864757 90.7959099,16.128567 C93.1468412,15.392377 95.7911847,15.024737 98.7289405,15.024737 C101.667605,15.024737 104.311948,15.392377 106.662879,16.128567 C109.013811,16.864757 111.412887,18.018637 113.861925,19.587477 C118.023292,22.236487 122.369971,24.149307 126.901055,25.326847 C128.446238,25.729067 130.0432,25.967487 131.631078,26.231387 C131.63562,26.232297 131.639253,26.229567 131.639253,26.225017 L131.639253,0.896077 L-0.000181679389,0.896077 L-0.000181679389,76.250447 L65.9539786,76.250447 C64.7885053,74.548747 63.7147802,72.795177 62.7346198,70.988827 C60.7742992,67.383407 59.2309328,63.593257 58.1063374,59.619287" id="Fill-7" fill="#D2D2D2" mask="url(#mask-4)"></path>
                </g>
                <path d="M108.572966,86.537087 C105.583431,84.578767 102.304118,83.594147 98.7295763,83.594147 C95.1532176,83.594147 91.8720878,84.578767 88.886187,86.537087 C85.4560802,88.846667 81.7716221,90.686687 77.8300878,92.056237 C74.6534237,93.163707 71.4386069,94.015467 68.184729,94.612427 C66.8248588,94.860857 65.8201718,96.016557 65.8201718,97.400667 L65.8201718,106.333227 C65.8201718,111.438327 66.7748969,116.257687 68.6843473,120.794037 C70.5947061,125.333117 73.1036985,129.550967 76.2140496,133.450317 C79.322584,137.350577 82.8480725,140.919597 86.7923321,144.157377 C90.2342481,146.985657 93.7043244,149.532747 97.2043779,151.798647 C98.1309427,152.399247 99.3282099,152.398337 100.253866,151.798647 C103.752103,149.532747 107.222179,146.985657 110.666821,144.157377 C114.608355,140.919597 118.133844,137.350577 121.245103,133.450317 C124.352729,129.550967 126.864447,125.333117 128.773897,120.794037 C130.684256,116.257687 131.638981,111.438327 131.638981,106.333227 L131.638981,97.400667 C131.638981,96.016557 130.633385,94.860857 129.273515,94.612427 C126.018729,94.015467 122.803912,93.164617 119.628156,92.056237 C115.684805,90.686687 112.000347,88.846667 108.572966,86.537087" id="Fill-10" fill="#0078D4"></path>
                <path d="M118.931689,121.011345 C118.931689,126.199255 114.733986,130.404365 109.555215,130.404365 C104.376444,130.404365 100.177834,126.199255 100.177834,121.011345 C100.177834,115.823435 104.376444,111.618325 109.555215,111.618325 C114.733986,111.618325 118.931689,115.823435 118.931689,121.011345" id="Fill-12" fill="#025385"></path>
                <g id="Group-16" transform="translate(90.839695, 121.030000)">
                    <mask id="mask-6" fill="white">
                        <use xlink:href="#path-5"></use>
                    </mask>
                    <g id="Clip-15"></g>
                    <path d="M47.0795794,18.84792 C45.1065412,18.84792 43.5068542,20.45043 43.5068542,22.42695 L43.5068542,28.9289 L41.2167855,28.9289 L41.2167855,17.27362 C41.2167855,15.2971 39.6180069,13.6955 37.6449687,13.6955 C35.6728389,13.6955 34.0731519,15.2971 34.0731519,17.27362 L34.0731519,28.9289 L31.7830832,28.9289 L31.7830832,17.27362 C31.7830832,15.2971 30.1833962,13.6955 28.2112664,13.6955 C26.2382282,13.6955 24.6385412,15.2971 24.6385412,17.27362 L24.6385412,28.9289 L22.3094115,28.9289 L22.3094115,3.77104 C22.3094115,1.79543 20.7106328,0.19292 18.7375947,0.19292 C16.7645565,0.19292 15.2157397,1.79543 15.2157397,3.77104 L15.2157397,28.9289 L15.2157397,38.20453 L7.13009847,34.78293 C7.13009847,34.78293 1.97312901,33.0603 0.650503053,35.15148 C-0.672122901,37.24266 0.778587023,38.56398 0.778587023,38.56398 L20.1764954,57.98338 C24.9301366,61.98465 35.5084191,60.80893 35.5084191,60.80893 C50.8875794,59.24919 50.6513962,49.32746 50.6513962,49.32746 L50.6513962,29.24558 L50.6513962,28.9289 L50.6513962,22.42695 C50.6513962,20.45043 49.0517092,18.84792 47.0795794,18.84792" id="Fill-14" fill="#737373" mask="url(#mask-6)"></path>
                </g>
                <path d="M225.575219,23.974587 C225.782334,23.049117 225.884074,22.125467 225.884074,21.096257 C225.884074,12.969047 219.275486,6.386107 211.119898,6.386107 C207.81515,6.386107 204.717517,7.416227 202.340242,9.268077 C199.13996,3.712527 193.050975,0.008827 186.237089,0.008827 C176.116639,0.008827 167.854769,8.133307 167.648563,18.112367 L167.442356,18.112367 C159.287677,18.112367 152.677273,24.697127 152.677273,32.925347 C152.677273,41.052557 159.287677,47.635497 167.442356,47.635497 L225.264547,47.635497 C231.873135,47.635497 237.139112,42.388437 237.139112,35.803677 C237.139112,29.427307 231.978509,24.182067 225.575219,23.974587" id="Fill-17" fill="#E6E6E6"></path>
                <polygon id="Stroke-19" stroke="#E6E6E6" stroke-width="2" points="168.73873 73.346546 161.546043 80.551926 154.353356 73.346546 161.546043 66.141166"></polygon>
                <polygon id="Fill-21" fill="#E6E6E6" points="170.727211 97.557551 161.546043 106.754921 152.363966 97.557551 161.546043 88.360181"></polygon>
            </g>
        </g>
    </g>
</svg>