<?xml version="1.0" encoding="UTF-8"?>
<svg width="424px" height="389px" viewBox="0 0 424 389" version="1.1" xmlns="http://www.w3.org/2000/svg" xmlns:xlink="http://www.w3.org/1999/xlink">
    <!-- Generator: Sketch 48.2 (47327) - http://www.bohemiancoding.com/sketch -->
    <title>graphic_chapter3_big</title>
    <desc>Created with Sketch.</desc>
    <defs>
        <polygon id="path-1" points="0 0.149691176 350.620471 0.149691176 350.620471 349.775113 0 349.775113"></polygon>
        <polygon id="path-3" points="0.05846 0.399905714 205.1099 0.399905714 205.1099 179.360218 0.05846 179.360218"></polygon>
        <polygon id="path-5" points="0.12972 0.860422222 206.1099 0.860422222 206.1099 185.999311 0.12972 185.999311"></polygon>
    </defs>
    <g id="icons" stroke="none" stroke-width="1" fill="none" fill-rule="evenodd" transform="translate(-1365.000000, -442.000000)">
        <g id="graphic_chapter3_big" transform="translate(1365.000000, 442.000000)">
            <g id="Group-3">
                <mask id="mask-2" fill="white">
                    <use xlink:href="#path-1"></use>
                </mask>
                <g id="Clip-2"></g>
                <path d="M350.620471,174.961628 C350.620471,271.507275 272.131373,349.775113 175.308941,349.775113 C78.4899608,349.775113 -0.000862745098,271.507275 -0.000862745098,174.961628 C-0.000862745098,78.4159809 78.4899608,0.148142647 175.308941,0.148142647 C272.131373,0.148142647 350.620471,78.4159809 350.620471,174.961628" id="Fill-1" fill-opacity="0.5" fill="#E6E6E6" mask="url(#mask-2)"></path>
            </g>
            <path d="M87.5445935,172.875547 C85.4175185,169.124453 82.7560724,166 79.5602551,163.500438 C76.3644378,160.999125 72.6967082,159.124453 68.5588015,157.876422 C64.4191597,156.626641 59.8995592,156 55,156 C50.1004408,156 45.5808403,156.626641 41.4411985,157.876422 C37.3032918,159.124453 33.6338273,160.999125 30.4380099,163.500438 C27.2421926,166 24.5807465,169.124453 22.4554065,172.875547 C20.3283316,176.624891 18.8431961,181.000875 18,186 L92,186 C91.1550689,181.000875 89.6699334,176.624891 87.5445935,172.875547" id="Fill-4" fill="#D2D2D2"></path>
            <path d="M80,124.5 C80,138.583401 69.0305465,150 55.4991368,150 C41.9694535,150 31,138.583401 31,124.5 C31,110.416599 41.9694535,99 55.4991368,99 C69.0305465,99 80,110.416599 80,124.5" id="Fill-6" fill="#D2D2D2"></path>
            <path d="M330.09457,119.204869 C328.928188,121.924337 327.332178,124.292075 325.311716,126.313231 C323.289528,128.32924 320.922256,129.92489 318.209902,131.10018 C315.490646,132.260029 312.590221,132.850247 309.501725,132.850247 C306.408054,132.850247 303.507629,132.260029 300.791824,131.10018 C298.08292,129.92489 295.708747,128.32924 293.69001,126.313231 C291.669547,124.292075 290.070086,121.924337 288.895078,119.204869 C287.74595,116.492265 287.140329,113.599507 287.140329,110.502574 C287.140329,107.410788 287.74595,104.511167 288.895078,101.796846 C290.070086,99.0790948 291.669547,96.7199353 293.69001,94.6902004 C295.708747,92.6724756 298.08292,91.083689 300.791824,89.9101144 C303.507629,88.7434029 306.408054,88.1514683 309.501725,88.1514683 C312.590221,88.1514683 315.490646,88.7434029 318.209902,89.9101144 C320.922256,91.083689 323.289528,92.6724756 325.311716,94.6902004 C327.332178,96.7199353 328.928188,99.0790948 330.09457,101.796846 C331.257501,104.511167 331.842417,107.410788 331.842417,110.502574 C331.842417,113.599507 331.257501,116.492265 330.09457,119.204869 M354.638618,111.568056 C354.657598,111.219758 354.661048,110.862882 354.661048,110.502574 C354.661048,110.149129 354.657598,109.785389 354.638618,109.431944 C354.617913,109.075068 354.60756,108.719907 354.60756,108.357883 L370,98.7959956 L360.555071,76.0296783 L342.893709,80.0719907 C341.951631,79.0494023 340.956066,78.0525502 339.925992,77.1037392 L343.975545,59.448648 L321.210401,50 L311.639516,65.3971612 C311.289257,65.3971612 310.928645,65.3851509 310.566307,65.3628462 C310.209146,65.3456886 309.851985,65.3405414 309.501725,65.3405414 C309.137663,65.3405414 308.782227,65.3456886 308.425066,65.3628462 C308.071355,65.3851509 307.715919,65.3971612 307.358758,65.3971612 L297.798226,50 L275.029632,59.448648 L279.072282,77.1037392 C278.037032,78.0525502 277.046643,79.0494023 276.095939,80.0719907 L258.443204,76.0296783 L249,98.7959956 L264.387263,108.357883 C264.387263,108.719907 264.387263,109.075068 264.361382,109.431944 C264.340677,109.785389 264.325148,110.149129 264.325148,110.502574 C264.325148,110.862882 264.340677,111.219758 264.361382,111.568056 C264.387263,111.924932 264.387263,112.28524 264.387263,112.642117 L249,122.212583 L258.443204,144.977185 L276.095939,140.926294 C277.046643,141.950598 278.037032,142.945734 279.072282,143.899692 L275.029632,161.547921 L297.798226,171 L307.358758,155.607986 C307.715919,155.607986 308.071355,155.618281 308.425066,155.632007 C308.782227,155.661174 309.137663,155.668037 309.501725,155.668037 C309.851985,155.668037 310.209146,155.661174 310.566307,155.632007 C310.928645,155.618281 311.289257,155.607986 311.639516,155.607986 L321.210401,171 L343.975545,161.547921 L339.925992,143.899692 C340.956066,142.945734 341.951631,141.950598 342.893709,140.926294 L360.555071,144.977185 L370,122.212583 L354.60756,112.642117 C354.60756,112.28524 354.617913,111.924932 354.638618,111.568056" id="Fill-8" fill="#E6E6E6"></path>
            <g id="Group-12" transform="translate(218.000000, 204.000000)">
                <mask id="mask-4" fill="white">
                    <use xlink:href="#path-3"></use>
                </mask>
                <g id="Clip-11"></g>
                <path d="M0.05846,0.399905714 L0.05846,115.259058 L0.05846,136.573963 L132.30731,136.573963 C132.30731,136.573963 177.58166,179.776077 178.40621,179.357191 C179.153135,178.979677 179.611985,136.573963 179.611985,136.573963 L205.110935,136.573963 L205.110935,0.399905714 L0.05846,0.399905714 Z" id="Fill-10" fill="#FFFFFF" mask="url(#mask-4)"></path>
            </g>
            <path d="M378.079459,285.021553 C379.633257,284.371536 381.004154,283.476907 382.190406,282.335956 C383.373174,281.198426 384.306847,279.881286 384.982715,278.381115 C385.662066,276.887787 386,275.255901 386,273.499145 C386,271.738967 385.662066,270.115635 384.982715,268.615464 C384.306847,267.122135 383.373174,265.801574 382.190406,264.660623 C381.004154,263.519672 379.633257,262.626753 378.079459,261.973315 C376.520434,261.323298 374.829023,261 373,261 C371.172719,261 369.477824,261.323298 367.922283,261.973315 C366.363259,262.626753 364.99062,263.519672 363.809594,264.660623 C362.6216,265.801574 361.693153,267.122135 361.017285,268.615464 C360.337934,270.115635 360,271.738967 360,273.499145 C360,275.255901 360.337934,276.887787 361.017285,278.381115 C361.693153,279.881286 362.6216,281.198426 363.809594,282.335956 C364.99062,283.476907 366.363259,284.371536 367.922283,285.021553 C369.477824,285.674991 371.172719,286 373,286 C374.829023,286 376.520434,285.674991 378.079459,285.021553 Z" id="Fill-13" fill="#737373"></path>
            <path d="M327.081201,285.021553 C328.633257,284.371536 330.005896,283.476907 331.190406,282.335956 C332.374916,281.198426 333.306847,279.881286 333.982715,278.381115 C334.662066,276.887787 335,275.255901 335,273.499145 C335,271.738967 334.662066,270.115635 333.982715,268.615464 C333.306847,267.122135 332.374916,265.801574 331.190406,264.660623 C330.005896,263.519672 328.633257,262.626753 327.081201,261.973315 C325.520434,261.323298 323.830765,261 322,261 C320.174461,261 318.477824,261.323298 316.924025,261.973315 C315.363259,262.626753 313.992362,263.519672 312.809594,264.660623 C311.623342,265.801574 310.693153,267.122135 310.017285,268.615464 C309.337934,270.115635 309,271.738967 309,273.499145 C309,275.255901 309.337934,276.887787 310.017285,278.381115 C310.693153,279.881286 311.623342,281.198426 312.809594,282.335956 C313.992362,283.476907 315.363259,284.371536 316.924025,285.021553 C318.477824,285.674991 320.174461,286 322,286 C323.830765,286 325.520434,285.674991 327.081201,285.021553 Z" id="Fill-15" fill="#737373"></path>
            <path d="M276.079459,285.021553 C277.633257,284.371536 279.004154,283.476907 280.190406,282.335956 C281.374916,281.198426 282.306847,279.881286 282.982715,278.381115 C283.662066,276.887787 284,275.255901 284,273.499145 C284,271.738967 283.662066,270.115635 282.982715,268.615464 C282.306847,267.122135 281.374916,265.801574 280.190406,264.660623 C279.004154,263.519672 277.633257,262.626753 276.079459,261.973315 C274.520434,261.323298 272.829023,261 271,261 C269.172719,261 267.477824,261.323298 265.922283,261.973315 C264.363259,262.626753 262.992362,263.519672 261.809594,264.660623 C260.6216,265.801574 259.693153,267.122135 259.017285,268.615464 C258.337934,270.115635 258,271.738967 258,273.499145 C258,275.255901 258.337934,276.887787 259.017285,278.381115 C259.693153,279.881286 260.6216,281.198426 261.809594,282.335956 C262.992362,283.476907 264.363259,284.371536 265.922283,285.021553 C267.477824,285.674991 269.172719,286 271,286 C272.829023,286 274.520434,285.674991 276.079459,285.021553 Z" id="Fill-17" fill="#737373"></path>
            <g id="Group-21" transform="translate(217.000000, 203.000000)">
                <mask id="mask-6" fill="white">
                    <use xlink:href="#path-5"></use>
                </mask>
                <g id="Clip-20"></g>
                <polygon id="Fill-19" fill="#737373" mask="url(#mask-6)" points="41.410695 0.860422222 41.410695 13.4464222 193.23657 13.4464222 193.23657 126.711811 167.48922 126.711811 167.48922 155.521144 138.01932 126.711811 13.003395 126.711811 13.003395 65.7623667 0.12972 65.7623667 0.12972 139.297811 132.58902 139.297811 180.362895 185.999311 180.362895 139.297811 206.110245 139.297811 206.110245 0.860422222"></polygon>
            </g>
            <path d="M237.29257,223.688463 C233.615044,217.311537 229.01166,212.001713 223.484143,207.748715 C217.9549,203.499144 211.612075,200.311537 204.452215,198.185894 C197.292354,196.063678 189.474373,195 181,195 C172.525627,195 164.709374,196.063678 157.547785,198.185894 C150.387925,200.311537 144.043373,203.499144 138.515857,207.748715 C132.986613,212.001713 128.383229,217.311537 124.70743,223.688463 C121.029905,230.063678 118.461337,237.502569 117,246 L245,246 C243.538663,237.502569 240.968368,230.063678 237.29257,223.688463" id="Fill-22" fill="#0078D4"></path>
            <path d="M224,141.5 C224,166.075712 204.971487,186 181.500862,186 C158.028513,186 139,166.075712 139,141.5 C139,116.924288 158.028513,97 181.500862,97 C204.971487,97 224,116.924288 224,141.5" id="Fill-24" fill="#0078D4"></path>
        </g>
    </g>
</svg>