<?xml version="1.0" encoding="UTF-8"?>
<svg width="225px" height="207px" viewBox="0 0 225 207" version="1.1" xmlns="http://www.w3.org/2000/svg" xmlns:xlink="http://www.w3.org/1999/xlink">
    <!-- Generator: Sketch 48.2 (47327) - http://www.bohemiancoding.com/sketch -->
    <title>graphic3</title>
    <desc>Created with Sketch.</desc>
    <defs>
        <polygon id="path-1" points="0 0.07975 186.267125 0.07975 186.267125 186.347425 0 186.347425"></polygon>
        <polygon id="path-3" points="0.562466667 0.742491429 109.527 0.742491429 109.527 95.6606681 0.562466667 95.6606681"></polygon>
        <polygon id="path-5" points="0.0689333333 0.457966667 109.527 0.457966667 109.527 98.9996333 0.0689333333 98.9996333"></polygon>
    </defs>
    <g id="icons" stroke="none" stroke-width="1" fill="none" fill-rule="evenodd" transform="translate(-856.000000, -81.000000)">
        <g id="graphic3" transform="translate(856.000000, 81.000000)">
            <g id="Group-3">
                <mask id="mask-2" fill="white">
                    <use xlink:href="#path-1"></use>
                </mask>
                <g id="Clip-2"></g>
                <path d="M186.267125,93.213175 C186.267125,144.649175 144.569792,186.347425 93.132875,186.347425 C41.6977917,186.347425 -0.000458333333,144.649175 -0.000458333333,93.213175 C-0.000458333333,41.777175 41.6977917,0.078925 93.132875,0.078925 C144.569792,0.078925 186.267125,41.777175 186.267125,93.213175" id="Fill-1" fill="#FFFFFF" mask="url(#mask-2)"></path>
            </g>
            <path d="M45.6518803,92.0002917 C44.5308544,89.9997083 43.1282003,88.3333333 41.4439182,87.0002334 C39.7596361,85.6661999 37.8266435,84.6663749 35.6458548,84.0007585 C33.4641517,83.3342085 31.0822001,83 28.5,83 C25.9177999,83 23.5358483,83.3342085 21.3541452,84.0007585 C19.1733565,84.6663749 17.2394495,85.6661999 15.5551674,87.0002334 C13.8708853,88.3333333 12.4682313,89.9997083 11.3481197,92.0002917 C10.2270937,93.9999417 9.44438713,96.3338001 9,99 L48,99 C47.5546985,96.3338001 46.7719919,93.9999417 45.6518803,92.0002917" id="Fill-4" fill="#D2D2D2"></path>
            <path d="M28.999542,80 C21.8205264,80 16,73.9559181 16,66.5 C16,59.0440819 21.8205264,53 28.999542,53 C36.1794736,53 42,59.0440819 42,66.5 C42,73.9559181 36.1794736,80 28.999542,80 Z" id="Fill-6" fill="#D2D2D2"></path>
            <path d="M174.892996,63.1761695 C174.276067,64.6370404 173.431896,65.9089659 172.363222,66.9947109 C171.293634,68.077691 170.041524,68.9348581 168.60689,69.5662124 C167.168606,70.1892716 165.634497,70.5063313 164.000913,70.5063313 C162.36459,70.5063313 160.830481,70.1892716 159.394022,69.5662124 C157.961214,68.9348581 156.705453,68.077691 155.637691,66.9947109 C154.569017,65.9089659 153.723021,64.6370404 153.101529,63.1761695 C152.493726,61.7189853 152.173397,60.1650242 152.173397,58.5013825 C152.173397,56.8405059 152.493726,55.2828581 153.101529,53.8247522 C153.723021,52.364803 154.569017,51.0974859 155.637691,50.0071324 C156.705453,48.9232307 157.961214,48.0697503 159.394022,47.4393177 C160.830481,46.8125718 162.36459,46.4945904 164.000913,46.4945904 C165.634497,46.4945904 167.168606,46.8125718 168.60689,47.4393177 C170.041524,48.0697503 171.293634,48.9232307 172.363222,50.0071324 C173.431896,51.0974859 174.276067,52.364803 174.892996,53.8247522 C175.508099,55.2828581 175.817477,56.8405059 175.817477,58.5013825 C175.817477,60.1650242 175.508099,61.7189853 174.892996,63.1761695 M187.874971,59.073749 C187.88501,58.8866469 187.886836,58.6949364 187.886836,58.5013825 C187.886836,58.3115154 187.88501,58.1161181 187.874971,57.926251 C187.86402,57.7345405 187.858544,57.5437517 187.858544,57.3492761 L196,52.2127249 L191.004335,39.982885 L181.662788,42.1543752 C181.164499,41.6050508 180.637919,41.0695518 180.093087,40.5598599 L182.234999,31.07572 L170.193931,26 L165.131645,34.2712023 C164.946384,34.2712023 164.755647,34.2647505 164.563997,34.2527686 C164.375086,34.2435517 164.186174,34.2407867 164.000913,34.2407867 C163.80835,34.2407867 163.620351,34.2435517 163.43144,34.2527686 C163.244353,34.2647505 163.056354,34.2712023 162.867442,34.2712023 L157.810632,26 L145.767739,31.07572 L147.906,40.5598599 C147.35843,41.0695518 146.834588,41.6050508 146.331736,42.1543752 L136.994752,39.982885 L132,52.2127249 L140.138718,57.3492761 C140.138718,57.5437517 140.138718,57.7345405 140.125029,57.926251 C140.114077,58.1161181 140.105864,58.3115154 140.105864,58.5013825 C140.105864,58.6949364 140.114077,58.8866469 140.125029,59.073749 C140.138718,59.2654595 140.138718,59.4590134 140.138718,59.6507239 L132,64.7918835 L136.994752,77.0208017 L146.331736,74.8447031 C146.834588,75.3949492 147.35843,75.9295265 147.906,76.4419835 L145.767739,85.9224367 L157.810632,91 L162.867442,82.7315628 C163.056354,82.7315628 163.244353,82.7370929 163.43144,82.7444663 C163.620351,82.760135 163.80835,82.7638217 164.000913,82.7638217 C164.186174,82.7638217 164.375086,82.760135 164.563997,82.7444663 C164.755647,82.7370929 164.946384,82.7315628 165.131645,82.7315628 L170.193931,91 L182.234999,85.9224367 L180.093087,76.4419835 C180.637919,75.9295265 181.164499,75.3949492 181.662788,74.8447031 L191.004335,77.0208017 L196,64.7918835 L187.858544,59.6507239 C187.858544,59.4590134 187.86402,59.2654595 187.874971,59.073749" id="Fill-8" fill="#E6E6E6"></path>
            <g id="Group-12" transform="translate(115.000000, 108.000000)">
                <mask id="mask-4" fill="white">
                    <use xlink:href="#path-3"></use>
                </mask>
                <g id="Clip-11"></g>
                <path d="M0.562466667,0.742491429 L0.562466667,61.6622629 L0.562466667,72.9674057 L70.8396333,72.9674057 C70.8396333,72.9674057 94.8984667,95.8812343 95.3366333,95.6590629 C95.73355,95.4588343 95.9773833,72.9674057 95.9773833,72.9674057 L109.52755,72.9674057 L109.52755,0.742491429 L0.562466667,0.742491429 Z" id="Fill-10" fill="#FFFFFF" mask="url(#mask-4)"></path>
            </g>
            <path d="M200.735093,151.491208 C201.571754,151.153199 202.309929,150.687992 202.94868,150.094697 C203.585555,149.503182 204.088302,148.818269 204.452231,148.03818 C204.818036,147.261649 205,146.413069 205,145.499555 C205,144.584263 204.818036,143.74013 204.452231,142.960041 C204.088302,142.18351 203.585555,141.496818 202.94868,140.903524 C202.309929,140.310229 201.571754,139.845912 200.735093,139.506124 C199.895618,139.168115 198.984859,139 198,139 C197.016079,139 196.103444,139.168115 195.265845,139.506124 C194.42637,139.845912 193.687257,140.310229 193.05132,140.903524 C192.411631,141.496818 191.911698,142.18351 191.547769,142.960041 C191.181964,143.74013 191,144.584263 191,145.499555 C191,146.413069 191.181964,147.261649 191.547769,148.03818 C191.911698,148.818269 192.411631,149.503182 193.05132,150.094697 C193.687257,150.687992 194.42637,151.153199 195.265845,151.491208 C196.103444,151.830996 197.016079,152 198,152 C198.984859,152 199.895618,151.830996 200.735093,151.491208 Z" id="Fill-13" fill="#737373"></path>
            <path d="M173.736031,151.491208 C174.571754,151.153199 175.310867,150.687992 175.94868,150.094697 C176.586493,149.503182 177.088302,148.818269 177.452231,148.03818 C177.818036,147.261649 178,146.413069 178,145.499555 C178,144.584263 177.818036,143.74013 177.452231,142.960041 C177.088302,142.18351 176.586493,141.496818 175.94868,140.903524 C175.310867,140.310229 174.571754,139.845912 173.736031,139.506124 C172.895618,139.168115 171.985797,139 171,139 C170.017017,139 169.103444,139.168115 168.266783,139.506124 C167.42637,139.845912 166.688195,140.310229 166.05132,140.903524 C165.412569,141.496818 164.911698,142.18351 164.547769,142.960041 C164.181964,143.74013 164,144.584263 164,145.499555 C164,146.413069 164.181964,147.261649 164.547769,148.03818 C164.911698,148.818269 165.412569,149.503182 166.05132,150.094697 C166.688195,150.687992 167.42637,151.153199 168.266783,151.491208 C169.103444,151.830996 170.017017,152 171,152 C171.985797,152 172.895618,151.830996 173.736031,151.491208 Z" id="Fill-15" fill="#737373"></path>
            <path d="M146.735093,151.491208 C147.571754,151.153199 148.309929,150.687992 148.94868,150.094697 C149.586493,149.503182 150.088302,148.818269 150.452231,148.03818 C150.818036,147.261649 151,146.413069 151,145.499555 C151,144.584263 150.818036,143.74013 150.452231,142.960041 C150.088302,142.18351 149.586493,141.496818 148.94868,140.903524 C148.309929,140.310229 147.571754,139.845912 146.735093,139.506124 C145.895618,139.168115 144.984859,139 144,139 C143.016079,139 142.103444,139.168115 141.265845,139.506124 C140.42637,139.845912 139.688195,140.310229 139.05132,140.903524 C138.411631,141.496818 137.911698,142.18351 137.547769,142.960041 C137.181964,143.74013 137,144.584263 137,145.499555 C137,146.413069 137.181964,147.261649 137.547769,148.03818 C137.911698,148.818269 138.411631,149.503182 139.05132,150.094697 C139.688195,150.687992 140.42637,151.153199 141.265845,151.491208 C142.103444,151.830996 143.016079,152 144,152 C144.984859,152 145.895618,151.830996 146.735093,151.491208 Z" id="Fill-17" fill="#737373"></path>
            <g id="Group-21" transform="translate(115.000000, 108.000000)">
                <mask id="mask-6" fill="white">
                    <use xlink:href="#path-5"></use>
                </mask>
                <g id="Clip-20"></g>
                <polygon id="Fill-19" fill="#737373" mask="url(#mask-6)" points="22.0056833 0.457966667 22.0056833 7.15696667 102.6861 7.15696667 102.6861 67.4433833 89.0039333 67.4433833 89.0039333 82.7773833 73.3436 67.4433833 6.91001667 67.4433833 6.91001667 35.00255 0.0689333333 35.00255 0.0689333333 74.1423833 70.4579333 74.1423833 95.8450167 98.9996333 95.8450167 74.1423833 109.527183 74.1423833 109.527183 0.457966667"></polygon>
            </g>
            <path d="M125.905428,119.18801 C123.951742,115.81199 121.506194,113.000907 118.569701,110.74932 C115.632291,108.499547 112.262665,106.81199 108.458989,105.68665 C104.655313,104.563123 100.502011,104 96,104 C91.4979893,104 87.3456047,104.563123 83.541011,105.68665 C79.737335,106.81199 76.3667917,108.499547 73.4302988,110.74932 C70.4928882,113.000907 68.0473402,115.81199 66.0945723,119.18801 C64.1408869,122.563123 62.7763353,126.50136 62,131 L130,131 C129.223665,126.50136 127.858195,122.563123 125.905428,119.18801" id="Fill-22" fill="#0078D4"></path>
            <path d="M119,74.5 C119,87.4781848 108.926081,98 96.5004563,98 C84.0739186,98 74,87.4781848 74,74.5 C74,61.5218152 84.0739186,51 96.5004563,51 C108.926081,51 119,61.5218152 119,74.5" id="Fill-24" fill="#0078D4"></path>
        </g>
    </g>
</svg>