<?xml version="1.0" encoding="UTF-8"?>
<svg width="510px" height="527px" viewBox="0 0 510 527" version="1.1" xmlns="http://www.w3.org/2000/svg" xmlns:xlink="http://www.w3.org/1999/xlink">
    <!-- Generator: Sketch 47.1 (45422) - http://www.bohemiancoding.com/sketch -->
    <title>Highly secure access</title>
    <desc>Created with Sketch.</desc>
    <defs>
        <path d="M44.6548,11.6631876 C38.8210372,16.8173543 31.1548681,19.945 22.758,19.945 C14.3604601,19.945 6.69373632,16.8168539 0.8598,11.6619506 L0.8598,0.0713 L44.6548,0.0713 L44.6548,11.6631876 L44.6548,11.6631876 Z" id="path-1"></path>
        <path d="M46.0941,12.4691834 C39.995916,17.8583095 31.9818625,21.129 23.204,21.129 C14.426289,21.129 6.4122293,17.8580799 0.3141,12.4686159 L0.3141,0.3535 L46.0941,0.3535 L46.0941,12.4691834 L46.0941,12.4691834 Z" id="path-3"></path>
        <path d="M24.9692,7.49255818 C21.6447846,10.4307347 17.2756969,12.214 12.49,12.214 C7.70529926,12.214 3.33711441,10.4311346 0.0132,7.49354649 L0.0132,0.8887 L24.9692,0.8887 L24.9692,7.49255818 L24.9692,7.49255818 Z" id="path-5"></path>
        <path d="M25.2387,7.49275105 C21.9146741,10.4308127 17.5461326,12.214 12.761,12.214 C7.97552401,12.214 3.60683011,10.4308993 0.2827,7.49296512 L0.2827,0.8887 L25.2387,0.8887 L25.2387,7.49275105 L25.2387,7.49275105 Z" id="path-7"></path>
    </defs>
    <g id="Assets" stroke="none" stroke-width="1" fill="none" fill-rule="evenodd">
        <g id="Artboard-Copy" transform="translate(-227.000000, -531.000000)">
            <g id="Highly-secure-access" transform="translate(227.000000, 531.000000)">
                <polygon id="Fill-1" fill="#E5E5E5" points="408.5869 461.8107 382.7549 436.0327 367.9949 450.7977 331.0919 413.8987 305.2609 439.6687 305.2609 400.6337 408.5869 400.6337"></polygon>
                <g id="Group-6" transform="translate(305.000000, 399.654000)">
                    <path d="M0.2607,40.0112 L26.0927,14.2412 L62.9947,51.1432 L77.7547,36.3782 L103.5867,62.1572 L103.5867,0.9792 L0.2607,0.9792 L0.2607,40.0112 Z M82.5417,16.8362 C83.2687,16.1052 84.1337,15.7402 85.1357,15.7402 C86.1337,15.7402 86.9987,16.1052 87.7297,16.8362 C88.4627,17.5672 88.8257,18.4322 88.8257,19.4312 C88.8257,20.4282 88.4627,21.2932 87.7297,22.0222 C86.9987,22.7572 86.1337,23.1202 85.1357,23.1202 C84.1337,23.1202 83.2687,22.7572 82.5417,22.0222 C81.8097,21.2932 81.4457,20.4282 81.4457,19.4312 C81.4457,18.4322 81.8097,17.5672 82.5417,16.8362 L82.5417,16.8362 Z" id="Fill-2" fill="#D1D1D1"></path>
                    <path d="M85.1357,23.1201 C86.1377,23.1201 86.9977,22.7571 87.7307,22.0261 C88.4627,21.2931 88.8257,20.4281 88.8257,19.4311 C88.8257,18.4321 88.4627,17.5671 87.7307,16.8361 C86.9977,16.1051 86.1377,15.7401 85.1357,15.7401 C84.1347,15.7401 83.2697,16.1051 82.5407,16.8361 C81.8097,17.5671 81.4457,18.4321 81.4457,19.4311 C81.4457,20.4281 81.8097,21.2931 82.5407,22.0261 C83.2697,22.7571 84.1347,23.1201 85.1357,23.1201" id="Fill-4" fill="#FFFFFF"></path>
                </g>
                <path d="M305.2607,474.4382 L305.2607,450.1622 L331.0927,424.2712 L381.1987,474.4382 L305.2607,474.4382 Z M408.5867,474.4382 L391.6927,474.4382 L373.1837,455.9862 L382.7547,446.4152 L408.5867,472.3052 L408.5867,474.4382 Z" id="Fill-7" fill="#D1D1D1"></path>
                <polygon id="Fill-8" fill="#E5E5E5" points="39.1465 256.031 39.1465 369.985 124.6135 369.985 124.6135 291.604 88.9965 291.604 88.9965 256.031"></polygon>
                <path d="M40.2471,368.884 L123.5131,368.884 L123.5131,292.705 L87.8951,292.705 L87.8951,257.132 L40.2471,257.132 L40.2471,368.884 Z M125.7141,371.086 L38.0461,371.086 L38.0461,254.93 L90.0971,254.93 L90.0971,290.503 L125.7141,290.503 L125.7141,371.086 Z" id="Fill-9" fill="#FFFFFF"></path>
                <polygon id="Fill-10" fill="#E5E5E5" points="96.0967 284.5485 124.5717 284.5485 96.0967 256.0795"></polygon>
                <path d="M47.6,357.41 L116.31,357.41 L116.31,350.287 L47.6,350.287 L47.6,357.41 Z M47.6,343.167 L116.31,343.167 L116.31,336.044 L47.6,336.044 L47.6,343.167 Z M47.6,328.923 L82.815,328.923 L82.815,321.801 L47.6,321.801 L47.6,328.923 Z M89.935,328.923 L116.31,328.923 L116.31,321.801 L89.935,321.801 L89.935,328.923 Z M47.6,314.679 L116.31,314.679 L116.31,307.557 L47.6,307.557 L47.6,314.679 Z M47.6,300.436 L66.533,300.436 L66.533,293.315 L47.6,293.315 L47.6,300.436 Z" id="Fill-11" fill="#FFFFFF"></path>
                <polygon id="Fill-12" fill="#E5E5E5" points="142.1445 396.5578 284.3525 396.5578 284.3525 487.9778 185.7105 487.9778 162.4555 511.2198 162.4555 487.9778 142.1445 487.9778"></polygon>
                <path d="M143.8506,486.2717 L164.1616,486.2717 L164.1616,507.1017 L185.0046,486.2717 L282.6466,486.2717 L282.6466,398.2647 L143.8506,398.2647 L143.8506,486.2717 Z M160.7486,515.3377 L160.7486,489.6847 L140.4386,489.6847 L140.4386,394.8517 L286.0586,394.8517 L286.0586,489.6847 L186.4176,489.6847 L160.7486,515.3377 Z" id="Fill-13" fill="#FFFFFF"></path>
                <g id="Group-24" transform="translate(159.000000, 255.654000)">
                    <path d="M12.3115,178.647 C11.1335,178.647 10.0275,178.867 9.0245,179.301 C7.9875,179.754 7.1065,180.351 6.3365,181.122 C5.5585,181.906 4.9585,182.789 4.5065,183.817 C4.0785,184.802 3.8595,185.908 3.8595,187.099 C3.8595,188.288 4.0785,189.394 4.5095,190.387 C4.9575,191.406 5.5575,192.288 6.3405,193.078 C7.1095,193.849 7.9895,194.445 9.0285,194.898 C11.0145,195.762 13.6185,195.761 15.5935,194.898 C16.6415,194.441 17.5195,193.846 18.2795,193.079 C19.0625,192.293 19.6625,191.412 20.1155,190.38 C20.5425,189.392 20.7625,188.286 20.7625,187.099 C20.7625,185.91 20.5435,184.803 20.1125,183.81 C19.6605,182.783 19.0615,181.901 18.2845,181.122 C17.5225,180.353 16.6435,179.758 15.5925,179.299 C14.5975,178.867 13.4935,178.647 12.3115,178.647 M12.3115,198.962 C10.6535,198.962 9.0895,198.647 7.6655,198.027 C6.2245,197.399 4.9995,196.567 3.9195,195.484 C2.8335,194.389 2.0035,193.169 1.3815,191.753 C0.7605,190.321 0.4475,188.758 0.4475,187.099 C0.4475,185.437 0.7605,183.873 1.3795,182.45 C1.9985,181.044 2.8505,179.79 3.9165,178.714 C4.9985,177.631 6.2225,176.801 7.6645,176.171 C10.5455,174.924 14.1015,174.93 16.9565,176.17 C18.3925,176.798 19.6525,177.654 20.7045,178.715 C21.7815,179.795 22.6115,181.016 23.2405,182.443 C23.8615,183.876 24.1745,185.439 24.1745,187.099 C24.1745,188.755 23.8615,190.318 23.2435,191.745 C22.6135,193.178 21.7835,194.399 20.7005,195.484 C19.6505,196.545 18.3895,197.402 16.9585,198.026 C15.5385,198.647 13.9745,198.962 12.3115,198.962 M52.9405,178.647 C51.7635,178.647 50.6575,178.867 49.6535,179.302 C48.6185,179.754 47.7375,180.35 46.9675,181.122 C46.1885,181.906 45.5885,182.789 45.1365,183.817 C44.7075,184.802 44.4895,185.908 44.4895,187.099 C44.4895,188.288 44.7075,189.394 45.1395,190.387 C45.5865,191.406 46.1875,192.288 46.9705,193.077 C47.7405,193.849 48.6205,194.446 49.6575,194.898 C51.6455,195.763 54.2505,195.76 56.2255,194.898 C57.2715,194.442 58.1495,193.847 58.9095,193.079 C59.6985,192.287 60.2955,191.407 60.7415,190.385 C61.1725,189.392 61.3925,188.286 61.3925,187.099 C61.3925,185.909 61.1725,184.803 60.7415,183.812 C60.2945,182.788 59.6965,181.907 58.9135,181.121 C58.1515,180.352 57.2735,179.757 56.2255,179.299 C55.2285,178.867 54.1225,178.647 52.9405,178.647 M52.9405,198.962 C51.2835,198.962 49.7205,198.647 48.2945,198.027 C46.8555,197.399 45.6305,196.568 44.5505,195.484 C43.4645,194.39 42.6345,193.17 42.0115,191.753 C41.3905,190.321 41.0775,188.758 41.0775,187.099 C41.0775,185.437 41.3905,183.873 42.0095,182.45 C42.6275,181.043 43.4815,179.789 44.5485,178.714 C45.6285,177.631 46.8525,176.801 48.2925,176.171 C51.1755,174.923 54.7275,174.93 57.5865,176.17 C59.0225,176.797 60.2825,177.653 61.3345,178.716 C62.4055,179.79 63.2585,181.047 63.8705,182.448 C64.4905,183.873 64.8045,185.437 64.8045,187.099 C64.8045,188.757 64.4905,190.321 63.8705,191.747 C63.2515,193.167 62.4215,194.389 61.3315,195.484 C60.2805,196.546 59.0205,197.403 57.5895,198.027 C56.1665,198.647 54.6025,198.962 52.9405,198.962 M93.5715,178.647 C92.3755,178.647 91.2995,178.861 90.2805,179.302 C89.2445,179.755 88.3655,180.35 87.5995,181.12 C86.8125,181.914 86.2135,182.795 85.7705,183.813 C85.3385,184.803 85.1195,185.909 85.1195,187.099 C85.1195,188.286 85.3385,189.392 85.7705,190.386 C86.2115,191.4 86.8115,192.281 87.6015,193.078 C88.3675,193.849 89.2465,194.445 90.2855,194.898 C91.2915,195.336 92.3675,195.549 93.5715,195.549 C94.7605,195.549 95.8665,195.33 96.8555,194.898 C97.9025,194.442 98.7795,193.847 99.5395,193.079 C100.3295,192.285 100.9265,191.406 101.3695,190.386 C101.8025,189.392 102.0225,188.287 102.0225,187.099 C102.0225,185.909 101.8025,184.803 101.3705,183.813 C100.9245,182.789 100.3275,181.909 99.5415,181.12 C98.7825,180.353 97.9045,179.758 96.8545,179.299 C95.8585,178.867 94.7515,178.647 93.5715,178.647 M93.5715,198.962 C91.9135,198.962 90.3495,198.647 88.9225,198.027 C87.4995,197.407 86.2405,196.55 85.1785,195.482 C84.0995,194.393 83.2465,193.137 82.6415,191.748 C82.0215,190.321 81.7075,188.757 81.7075,187.099 C81.7075,185.437 82.0215,183.873 82.6415,182.449 C83.2485,181.057 84.1015,179.801 85.1775,178.715 C86.2525,177.634 87.4765,176.802 88.9205,176.171 C91.8055,174.923 95.3585,174.93 98.2165,176.17 C99.6535,176.798 100.9135,177.654 101.9645,178.716 C103.0375,179.793 103.8905,181.05 104.4995,182.45 C105.1205,183.871 105.4345,185.436 105.4345,187.099 C105.4345,188.759 105.1205,190.323 104.4995,191.748 C103.8925,193.144 103.0385,194.401 101.9615,195.483 C100.9115,196.545 99.6515,197.402 98.2205,198.026 C96.7965,198.647 95.2335,198.962 93.5715,198.962" id="Fill-14" fill="#0078D7"></path>
                    <path d="M127.0205,56.1597 C127.0205,86.9307 102.0755,111.8757 71.3045,111.8757 C40.5325,111.8757 15.5875,86.9307 15.5875,56.1597 C15.5875,25.3877 40.5325,0.4427 71.3045,0.4427 C102.0755,0.4427 127.0205,25.3877 127.0205,56.1597" id="Fill-16" fill="#E5E5E5"></path>
                    <path d="M58.374,49.0557 L83.184,49.0557 L83.184,36.9727 C83.184,35.2287 82.871,33.5897 82.248,32.0467 C81.624,30.5077 80.755,29.1557 79.646,27.9927 C78.537,26.8287 77.224,25.9167 75.707,25.2467 C74.187,24.5797 72.543,24.2437 70.779,24.2437 C69.014,24.2437 67.372,24.5797 65.852,25.2467 C64.334,25.9167 63.02,26.8287 61.912,27.9927 C60.8,29.1557 59.934,30.5077 59.309,32.0467 C58.685,33.5897 58.374,35.2287 58.374,36.9727 L58.374,49.0557 Z M45.968,49.0557 L54.238,49.0557 L54.238,36.9727 C54.238,34.6467 54.658,32.4627 55.497,30.4147 C56.338,28.3697 57.501,26.5817 58.987,25.0527 C60.474,23.5217 62.222,22.3187 64.237,21.4337 C66.25,20.5517 68.43,20.1097 70.779,20.1097 C73.127,20.1097 75.308,20.5517 77.322,21.4337 C79.335,22.3187 81.084,23.5217 82.571,25.0527 C84.057,26.5817 85.22,28.3697 86.06,30.4147 C86.898,32.4627 87.319,34.6467 87.319,36.9727 L87.319,49.0557 L95.589,49.0557 L45.968,49.0557 Z" id="Fill-18" fill="#0078D7"></path>
                    <path d="M70.7793,76.7993 C66.2173,76.7993 62.5083,73.0893 62.5083,68.5283 C62.5083,63.9673 66.2173,60.2583 70.7793,60.2583 C75.3403,60.2583 79.0483,63.9673 79.0483,68.5283 C79.0483,73.0893 75.3403,76.7993 70.7793,76.7993 L70.7793,76.7993 Z M45.9673,85.9323 L95.5893,85.9323 L95.5893,49.0563 L45.9673,49.0563 L45.9673,85.9323 Z" id="Fill-20" fill="#FFFFFF"></path>
                    <path d="M70.7783,64.3936 C68.4963,64.3936 66.6433,66.2446 66.6433,68.5296 C66.6433,70.8136 68.4963,72.6646 70.7783,72.6646 C73.0613,72.6646 74.9143,70.8136 74.9143,68.5296 C74.9143,66.2446 73.0613,64.3936 70.7783,64.3936" id="Fill-22" fill="#2E2E2E"></path>
                </g>
                <polygon id="Fill-25" fill="#E5E5E5" points="204.968 304.92 254.59 304.92 254.59 300.785 204.968 300.785"></polygon>
                <path d="M198.2285,206.5163 C198.2285,227.7633 181.0045,244.9873 159.7575,244.9873 C138.5105,244.9873 121.2865,227.7633 121.2865,206.5163 C121.2865,185.2693 138.5105,168.0453 159.7575,168.0453 C181.0045,168.0453 198.2285,185.2693 198.2285,206.5163" id="Fill-26" fill="#E5E5E5"></path>
                <g id="Group-33" transform="translate(137.000000, 186.654000)">
                    <path d="M22.7842,29.5786 C30.8472,29.5786 37.3832,23.0426 37.3832,14.9796 C37.3832,9.0776 33.8632,4.0216 28.8222,1.7216 C26.9782,0.8786 24.9442,0.3806 22.7842,0.3806 C20.6242,0.3806 18.5912,0.8786 16.7462,1.7216 C11.7052,4.0216 8.1852,9.0776 8.1852,14.9796 C8.1852,23.0426 14.7212,29.5786 22.7842,29.5786" id="Fill-28" fill="#0078D7"></path>
                    <g id="Group-32" transform="translate(0.000000, 33.000000)">
                        <mask id="mask-2" fill="white">
                            <use xlink:href="#path-1"></use>
                        </mask>
                        <g id="Clip-31"></g>
                        <path d="M22.7578,0.0713 C10.6638,0.0713 0.8598,9.8753 0.8598,21.9693 L44.6548,21.9693 C44.6548,9.8753 34.8518,0.0713 22.7578,0.0713" id="Fill-30" fill="#0078D7" mask="url(#mask-2)"></path>
                    </g>
                </g>
                <path d="M116.0879,446.2409 C116.0879,467.4879 98.8639,484.7119 77.6169,484.7119 C56.3699,484.7119 39.1459,467.4879 39.1459,446.2409 C39.1459,424.9939 56.3699,407.7699 77.6169,407.7699 C98.8639,407.7699 116.0879,424.9939 116.0879,446.2409" id="Fill-34" fill="#E5E5E5"></path>
                <g id="Group-41" transform="translate(55.000000, 425.654000)">
                    <path d="M23.2324,30.7031 C31.6594,30.7031 38.4914,23.8711 38.4914,15.4431 C38.4914,9.2731 34.8124,3.9881 29.5434,1.5841 C27.6154,0.7031 25.4904,0.1831 23.2324,0.1831 C20.9744,0.1831 18.8494,0.7031 16.9214,1.5841 C11.6524,3.9881 7.9724,9.2731 7.9724,15.4431 C7.9724,23.8711 14.8044,30.7031 23.2324,30.7031" id="Fill-36" fill="#FFFFFF"></path>
                    <g id="Group-40" transform="translate(0.000000, 34.000000)">
                        <mask id="mask-4" fill="white">
                            <use xlink:href="#path-3"></use>
                        </mask>
                        <g id="Clip-39"></g>
                        <path d="M23.2041,0.3535 C10.5611,0.3535 0.3141,10.6015 0.3141,23.2435 L46.0941,23.2435 C46.0941,10.6015 35.8461,0.3535 23.2041,0.3535" id="Fill-38" fill="#FFFFFF" mask="url(#mask-4)"></path>
                    </g>
                </g>
                <path d="M445.1416,279.0378 C445.1416,290.6198 435.7526,300.0088 424.1706,300.0088 C412.5886,300.0088 403.1996,290.6198 403.1996,279.0378 C403.1996,267.4558 412.5886,258.0668 424.1706,258.0668 C435.7526,258.0668 445.1416,267.4558 445.1416,279.0378" id="Fill-42" fill="#E5E5E5"></path>
                <g id="Group-49" transform="translate(412.000000, 267.654000)">
                    <path d="M12.5059,16.8984 C17.0999,16.8984 20.8239,13.1744 20.8239,8.5794 C20.8239,5.2164 18.8179,2.3364 15.9459,1.0254 C14.8949,0.5454 13.7369,0.2614 12.5059,0.2614 C11.2759,0.2614 10.1169,0.5454 9.0669,1.0254 C6.1939,2.3364 4.1879,5.2164 4.1879,8.5794 C4.1879,13.1744 7.9119,16.8984 12.5059,16.8984" id="Fill-44" fill="#FFFFFF"></path>
                    <g id="Group-48" transform="translate(0.000000, 18.000000)">
                        <mask id="mask-6" fill="white">
                            <use xlink:href="#path-5"></use>
                        </mask>
                        <g id="Clip-47"></g>
                        <path d="M12.4902,0.8887 C5.5992,0.8887 0.0132,6.4747 0.0132,13.3667 L24.9692,13.3667 C24.9692,6.4747 19.3822,0.8887 12.4902,0.8887" id="Fill-46" fill="#FFFFFF" mask="url(#mask-6)"></path>
                    </g>
                </g>
                <g id="Group-54" transform="translate(436.000000, 256.654000)">
                    <path d="M22.4404,44.0181 C10.5114,44.0181 0.8054,34.3131 0.8054,22.3831 C0.8054,10.4551 10.5114,0.7491 22.4404,0.7491 C34.3704,0.7491 44.0744,10.4551 44.0744,22.3831 C44.0744,34.3131 34.3704,44.0181 22.4404,44.0181" id="Fill-50" fill="#E5E5E5"></path>
                    <path d="M22.4404,1.4131 C34.0224,1.4131 43.4124,10.8021 43.4124,22.3841 C43.4124,33.9661 34.0224,43.3551 22.4404,43.3551 C10.8584,43.3551 1.4694,33.9661 1.4694,22.3841 C1.4694,10.8021 10.8584,1.4131 22.4404,1.4131 M22.4404,0.0861 C10.1454,0.0861 0.1424,10.0891 0.1424,22.3841 C0.1424,34.6791 10.1454,44.6821 22.4404,44.6821 C34.7354,44.6821 44.7384,34.6791 44.7384,22.3841 C44.7384,10.0891 34.7354,0.0861 22.4404,0.0861" id="Fill-52" fill="#FFFFFF"></path>
                </g>
                <g id="Group-60" transform="translate(446.000000, 267.654000)">
                    <path d="M12.7764,16.8984 C17.3704,16.8984 21.0934,13.1744 21.0934,8.5794 C21.0934,5.2164 19.0884,2.3364 16.2154,1.0254 C15.1664,0.5454 14.0064,0.2614 12.7764,0.2614 C11.5454,0.2614 10.3864,0.5454 9.3364,1.0254 C6.4644,2.3364 4.4584,5.2164 4.4584,8.5794 C4.4584,13.1744 8.1814,16.8984 12.7764,16.8984" id="Fill-55" fill="#0078D7"></path>
                    <g id="Group-59" transform="translate(0.000000, 18.000000)">
                        <mask id="mask-8" fill="white">
                            <use xlink:href="#path-7"></use>
                        </mask>
                        <g id="Clip-58"></g>
                        <path d="M12.7607,0.8887 C5.8687,0.8887 0.2827,6.4747 0.2827,13.3667 L25.2387,13.3667 C25.2387,6.4747 19.6517,0.8887 12.7607,0.8887" id="Fill-57" fill="#0078D7" mask="url(#mask-8)"></path>
                    </g>
                </g>
                <g id="Group-65" transform="translate(237.000000, 171.654000)">
                    <path d="M46.7471,34.3301 C42.9651,49.8711 29.8321,60.0191 17.4151,56.9971 C4.9971,53.9751 -2.0029,38.9261 1.7791,23.3861 C5.5611,7.8451 18.6931,-2.3029 31.1111,0.7191 C43.5281,3.7411 50.5281,18.7891 46.7471,34.3301" id="Fill-61" fill="#E5E5E5"></path>
                    <path d="M29.2754,53.0342 C28.8164,53.0342 28.4184,52.8672 28.0824,52.5302 C27.7464,52.1952 27.5784,51.7972 27.5784,51.3372 C27.5784,51.0732 27.6324,50.8342 27.7384,50.6222 C27.8444,50.4092 27.9944,50.2072 28.1884,50.0132 C29.1964,49.0402 30.1104,47.9232 30.9334,46.6592 C31.7544,45.3952 32.4644,44.0572 33.0664,42.6432 C33.6664,41.2292 34.1304,39.7852 34.4584,38.3092 C34.7854,36.8332 34.9484,35.3982 34.9484,34.0002 C34.9484,32.5522 34.6704,31.1372 34.1144,29.7592 C33.5564,28.3802 32.7924,27.1532 31.8214,26.0752 C30.8484,24.9972 29.7074,24.1312 28.4004,23.4772 C27.0924,22.8232 25.6884,22.4962 24.1854,22.4962 C22.5244,22.4962 21.1684,22.6072 20.1174,22.8282 C19.0644,23.0482 18.1954,23.3622 17.5064,23.7682 C16.8164,24.1752 16.2554,24.6702 15.8224,25.2532 C15.3894,25.8362 14.9614,26.4952 14.5374,27.2282 C14.1134,27.9612 13.6304,28.7662 13.0914,29.6402 C12.5534,30.5152 11.8504,31.4392 10.9844,32.4102 C10.3124,33.1882 9.5614,33.9082 8.7314,34.5702 C7.9004,35.2342 6.9814,35.7162 5.9744,36.0152 C5.9034,36.0512 5.8334,36.0682 5.7624,36.0682 L5.5504,36.0682 C5.0734,36.0682 4.6624,35.8962 4.3184,35.5522 C3.9724,35.2072 3.8004,34.8052 3.8004,34.3462 C3.8004,33.9392 3.9204,33.6032 4.1584,33.3382 C4.3974,33.0732 4.6934,32.8702 5.0464,32.7282 C6.0714,32.3392 6.9244,31.8492 7.6054,31.2572 C8.2844,30.6662 8.8684,30.0112 9.3544,29.2962 C9.8394,28.5802 10.2824,27.8332 10.6804,27.0552 C11.0774,26.2782 11.5054,25.5102 11.9654,24.7492 C12.4244,23.9902 12.9594,23.2702 13.5694,22.5882 C14.1794,21.9092 14.9524,21.3122 15.8884,20.8002 C16.8254,20.2872 17.9654,19.8772 19.3084,19.5672 C20.6514,19.2582 22.2784,19.1032 24.1854,19.1032 C25.5114,19.1032 26.7784,19.2942 27.9904,19.6732 C29.2004,20.0532 30.3314,20.5832 31.3834,21.2632 C32.4344,21.9452 33.3884,22.7532 34.2464,23.6892 C35.1034,24.6262 35.8364,25.6512 36.4464,26.7642 C37.0554,27.8782 37.5244,29.0532 37.8514,30.2892 C38.1784,31.5272 38.3414,32.7912 38.3414,34.0802 C38.3414,34.9822 38.2494,35.9892 38.0634,37.1022 C37.8774,38.2152 37.6134,39.3732 37.2674,40.5752 C36.9234,41.7772 36.5134,42.9792 36.0354,44.1802 C35.5584,45.3822 35.0234,46.5222 34.4324,47.6002 C33.8394,48.6782 33.1994,49.6552 32.5094,50.5292 C31.8214,51.4042 31.0954,52.1152 30.3354,52.6632 C30.1774,52.7692 30.0094,52.8582 29.8324,52.9282 C29.6554,52.9992 29.4694,53.0342 29.2754,53.0342 M41.0984,25.8892 C40.4104,25.8892 39.8964,25.5632 39.5614,24.9092 C37.8824,21.8692 35.7704,19.5762 33.2254,18.0292 C30.6804,16.4832 27.6504,15.7102 24.1334,15.7102 C22.7024,15.7102 21.3314,15.7852 20.0244,15.9352 C18.7154,16.0862 17.4834,16.3722 16.3264,16.7962 C15.1684,17.2212 14.0904,17.8222 13.0914,18.5992 C12.0934,19.3772 11.1784,20.3852 10.3484,21.6212 C10.1714,21.8862 9.9644,22.0982 9.7254,22.2582 C9.4864,22.4162 9.2004,22.4962 8.8644,22.4962 C8.4044,22.4962 8.0064,22.3292 7.6714,21.9922 C7.3344,21.6572 7.1674,21.2592 7.1674,20.8002 C7.1674,20.5352 7.2374,20.2612 7.3794,19.9772 C8.1744,18.4582 9.2004,17.2042 10.4544,16.2142 C11.7094,15.2242 13.0874,14.4422 14.5894,13.8672 C16.0924,13.2932 17.6644,12.8922 19.3084,12.6612 C20.9524,12.4322 22.5604,12.3172 24.1334,12.3172 C26.0414,12.3172 27.9324,12.5602 29.8054,13.0452 C31.6794,13.5322 33.4374,14.2432 35.0814,15.1802 C36.7244,16.1162 38.2004,17.2792 39.5084,18.6652 C40.8154,20.0532 41.8584,21.6572 42.6354,23.4772 C42.7414,23.7242 42.7954,23.9632 42.7954,24.1932 C42.7954,24.6522 42.6274,25.0502 42.2914,25.3852 C41.9554,25.7222 41.5574,25.8892 41.0984,25.8892 M19.0964,53.0342 C18.6374,53.0342 18.2394,52.8672 17.9034,52.5302 C17.5674,52.1952 17.4004,51.7972 17.4004,51.3372 C17.4004,50.7552 17.6554,50.2772 18.1684,49.9072 C18.7864,49.4642 19.4494,48.8902 20.1574,48.1832 C20.8634,47.4762 21.5664,46.6902 22.2644,45.8242 C22.9614,44.9582 23.6374,44.0432 24.2914,43.0802 C24.9454,42.1182 25.5204,41.1452 26.0154,40.1642 C26.5104,39.1832 26.9034,38.2292 27.1944,37.3012 C27.4864,36.3732 27.6324,35.5122 27.6324,34.7162 C27.6324,33.7452 27.5614,32.9142 27.4204,32.2252 C27.2784,31.5352 27.0174,30.9742 26.6384,30.5412 C26.2584,30.1092 25.7324,29.7912 25.0614,29.5872 C24.3894,29.3842 23.5314,29.2822 22.4894,29.2822 C21.7824,29.2822 21.1714,29.4282 20.6604,29.7202 C20.1474,30.0112 19.6974,30.4002 19.3084,30.8862 C18.9194,31.3722 18.5614,31.9422 18.2354,32.5962 C17.9074,33.2512 17.5674,33.9442 17.2144,34.6772 C16.8604,35.4112 16.4724,36.1572 16.0484,36.9172 C15.6234,37.6772 15.1154,38.4152 14.5234,39.1302 C13.9314,39.8462 13.2324,40.5132 12.4294,41.1322 C11.6254,41.7502 10.6664,42.2802 9.5524,42.7222 C9.3224,42.8112 9.1024,42.8552 8.8904,42.8552 C8.4304,42.8552 8.0334,42.6882 7.6974,42.3512 C7.3614,42.0162 7.1934,41.6182 7.1934,41.1582 C7.1934,40.8052 7.2944,40.4922 7.4994,40.2172 C7.7014,39.9432 7.9624,39.7362 8.2804,39.5942 C9.5184,39.0112 10.6174,38.2552 11.5814,37.3272 C12.5434,36.4002 13.3084,35.3002 13.8744,34.0272 C14.3154,33.0032 14.7664,31.9992 15.2264,31.0192 C15.6854,30.0382 16.2334,29.1682 16.8704,28.4082 C17.5064,27.6482 18.2694,27.0382 19.1634,26.5782 C20.0544,26.1192 21.1644,25.8892 22.4894,25.8892 C25.4934,25.8892 27.6674,26.6272 29.0104,28.1022 C30.3534,29.5792 31.0254,31.7832 31.0254,34.7162 C31.0254,35.6362 30.8574,36.6512 30.5214,37.7652 C30.1854,38.8782 29.7394,40.0272 29.1824,41.2112 C28.6264,42.3962 27.9764,43.5792 27.2344,44.7632 C26.4924,45.9482 25.7144,47.0562 24.9014,48.0902 C24.0884,49.1242 23.2584,50.0472 22.4104,50.8612 C21.5614,51.6732 20.7574,52.3102 19.9974,52.7692 C19.8564,52.8582 19.7144,52.9242 19.5734,52.9682 C19.4314,53.0132 19.2734,53.0342 19.0964,53.0342 M11.0384,50.0652 C10.5784,50.0652 10.1804,49.9022 9.8444,49.5752 C9.5084,49.2482 9.3404,48.8462 9.3404,48.3692 C9.3404,47.9982 9.4384,47.6752 9.6324,47.4012 C9.8264,47.1282 10.1004,46.9202 10.4544,46.7782 C11.7974,46.2132 13.0174,45.4792 14.1134,44.5782 C15.2084,43.6772 16.1804,42.6652 17.0284,41.5432 C17.8774,40.4212 18.6194,39.2102 19.2554,37.9112 C19.8914,36.6122 20.4214,35.2922 20.8464,33.9482 C20.9694,33.5762 21.1684,33.2722 21.4424,33.0332 C21.7154,32.7952 22.0654,32.6752 22.4894,32.6752 C22.9484,32.6752 23.3454,32.8472 23.6824,33.1922 C24.0174,33.5372 24.1854,33.9392 24.1854,34.3982 C24.1854,35.1232 23.9744,36.0152 23.5504,37.0762 C23.1264,38.1362 22.5604,39.2452 21.8534,40.4022 C21.1464,41.5612 20.3334,42.7182 19.4154,43.8752 C18.4954,45.0332 17.5494,46.0672 16.5784,46.9772 C15.6054,47.8882 14.6384,48.6302 13.6754,49.2032 C12.7114,49.7782 11.8324,50.0652 11.0384,50.0652 M37.7054,12.4232 C37.4404,12.4232 37.1664,12.3522 36.8834,12.2112 C34.8334,11.1502 32.7754,10.3372 30.7074,9.7722 C28.6394,9.2072 26.4484,8.9232 24.1334,8.9232 C22.1364,8.9232 20.2304,9.1362 18.4204,9.5602 C16.6084,9.9842 14.7924,10.5942 12.9734,11.3882 C12.8484,11.4422 12.7294,11.4862 12.6154,11.5222 C12.4994,11.5562 12.3714,11.5742 12.2304,11.5742 C11.7714,11.5742 11.3774,11.4072 11.0514,11.0702 C10.7234,10.7352 10.5604,10.3372 10.5604,9.8782 C10.5604,9.3652 10.8384,8.9022 11.3954,8.4862 C11.9524,8.0712 12.6674,7.7002 13.5434,7.3732 C14.4174,7.0462 15.3804,6.7682 16.4324,6.5382 C17.4834,6.3082 18.5134,6.1182 19.5214,5.9682 C20.5274,5.8182 21.4464,5.7082 22.2784,5.6362 C23.1074,5.5662 23.7264,5.5302 24.1334,5.5302 C24.5754,5.5302 25.2594,5.5802 26.1874,5.6762 C27.1154,5.7742 28.1444,5.9242 29.2754,6.1272 C30.4074,6.3302 31.5734,6.5772 32.7754,6.8692 C33.9764,7.1612 35.0684,7.5012 36.0484,7.8892 C37.0294,8.2792 37.8324,8.7072 38.4614,9.1752 C39.0884,9.6452 39.4024,10.1612 39.4024,10.7262 C39.4024,11.1862 39.2344,11.5842 38.8984,11.9192 C38.5624,12.2552 38.1644,12.4232 37.7054,12.4232" id="Fill-63" fill="#0078D7"></path>
                </g>
                <polygon id="Fill-66" fill="#E5E5E5" points="193.0576 79.2512 193.0576 44.4412 158.2476 44.4412 158.2476 137.2682 227.8686 137.2682 227.8686 79.2512"></polygon>
                <polygon id="Fill-67" fill="#E5E5E5" points="198.8594 46.1193 198.8594 73.4493 226.1914 73.4493"></polygon>
                <path d="M199.2998,73.009 L225.1278,73.009 L199.2998,47.183 L199.2998,73.009 Z M227.2548,73.89 L198.4188,73.89 L198.4188,45.056 L227.2548,73.89 Z" id="Fill-68" fill="#E5E5E5"></path>
                <g id="Group-72" transform="translate(39.000000, 49.654000)">
                    <path d="M125.137,28.242 L130.824,28.242 L130.824,22.555 L125.137,22.555 L125.137,28.242 Z M125.137,38.757 L130.824,38.757 L130.824,33.07 L125.137,33.07 L125.137,38.757 Z M183.054,80.051 L151.578,80.051 L146.422,61.587 C145.795,59.341 142.595,59.388 142.033,61.65 L137.466,80.051 L125.212,80.051 L125.212,67.423 L137.413,67.423 L139.738,58.192 C139.845,57.739 140.087,57.369 140.464,57.078 C140.841,56.788 141.266,56.643 141.738,56.643 L146.774,56.643 L150.066,43.182 C150.174,42.708 150.411,42.327 150.776,42.037 C151.142,41.747 151.573,41.601 152.068,41.601 C152.542,41.601 152.966,41.747 153.342,42.037 C153.72,42.327 153.962,42.697 154.068,43.15 L161.944,73.717 L167.658,68.037 C168.067,67.627 168.552,67.423 169.11,67.423 C169.67,67.423 170.155,67.627 170.563,68.037 L174.082,71.555 L183.054,71.555 L183.054,80.051 Z" id="Fill-69" fill="#FFFFFF"></path>
                    <path d="M77.0654,39.856 C76.3514,61.091 58.5594,77.727 37.3254,77.013 C16.0894,76.299 -0.5446,58.506 0.1684,37.271 C0.8814,16.037 18.6744,-0.598 39.9104,0.116 C61.1444,0.829 77.7804,18.621 77.0654,39.856" id="Fill-71" fill="#0078D7"></path>
                </g>
                <polygon id="Fill-73" fill="#FFFFFF" points="74.8574 105.1936 61.2674 91.6106 66.2164 86.6586 74.8554 95.2956 94.4854 75.6656 99.4344 80.6146"></polygon>
                <polygon id="Fill-74" fill="#E5E5E5" points="438.1748 216.0124 472.4848 216.0124 438.1748 181.7094"></polygon>
                <g id="Group-83" transform="translate(273.000000, 63.654000)">
                    <path d="M12.3701,12.0083 C10.7241,12.0083 9.1781,12.3203 7.7351,12.9403 C6.2901,13.5613 5.0221,14.4163 3.9371,15.5033 C2.8491,16.5903 1.9941,17.8563 1.3741,19.3003 C0.7521,20.7433 0.4421,22.2903 0.4421,23.9353 C0.4421,25.6133 0.7761,27.2053 1.4441,28.7113 C2.1111,30.2183 3.0661,31.5453 4.3101,32.6953 C6.2661,29.9313 8.7421,27.7793 11.7411,26.2423 C14.7381,24.7053 17.9301,23.9353 21.3161,23.9353 C22.4951,23.9353 23.6591,24.0293 24.8101,24.2163 C25.9581,24.4023 27.0771,24.6973 28.1651,25.1003 C29.1581,23.3303 30.3691,21.7163 31.7981,20.2543 C33.2271,18.7963 34.7951,17.5073 36.5051,16.3883 C38.2131,15.2703 40.0301,14.3533 41.9561,13.6393 C43.8811,12.9253 45.8541,12.4433 47.8741,12.1943 C47.5311,10.4563 46.9181,8.8403 46.0331,7.3493 C45.1471,5.8583 44.0521,4.5773 42.7481,3.5053 C41.4431,2.4333 39.9761,1.5953 38.3451,0.9883 C36.7141,0.3833 35.0141,0.0803 33.2431,0.0803 C31.3171,0.0803 29.4921,0.4293 27.7691,1.1283 C26.0451,1.8283 24.5211,2.7913 23.2031,4.0183 C21.8821,5.2453 20.8031,6.6903 19.9651,8.3513 C19.1251,10.0133 18.6271,11.8073 18.4741,13.7323 C17.5421,13.2053 16.5631,12.7853 15.5381,12.4753 C14.5121,12.1633 13.4571,12.0083 12.3701,12.0083" id="Fill-75" fill="#E5E5E5"></path>
                    <path d="M72.0078,59.7188 C73.6538,59.7188 75.1998,59.4088 76.6428,58.7868 C78.0878,58.1668 79.3548,57.3128 80.4418,56.2238 C81.5288,55.1388 82.3818,53.8708 83.0038,52.4268 C83.6238,50.9838 83.9358,49.4378 83.9358,47.7908 C83.9358,46.0828 83.6168,44.4988 82.9808,43.0378 C82.3428,41.5798 81.4658,40.3128 80.3478,39.2418 C79.2308,38.1698 77.9248,37.3398 76.4358,36.7498 C74.9448,36.1588 73.3598,35.8638 71.6808,35.8638 C71.3088,33.3168 70.5168,30.9478 69.3058,28.7578 C68.0938,26.5688 66.5798,24.6738 64.7628,23.0738 C62.9458,21.4758 60.8718,20.2248 58.5428,19.3228 C56.2128,18.4238 53.7438,17.9718 51.1348,17.9718 C48.7428,17.9718 46.4668,18.3618 44.3088,19.1368 C42.1508,19.9148 40.1858,20.9858 38.4148,22.3528 C36.6448,23.7188 35.1138,25.3658 33.8258,27.2908 C32.5348,29.2168 31.5968,31.3128 31.0068,33.5808 C29.6398,32.4018 28.1318,31.4918 26.4878,30.8558 C24.8398,30.2188 23.1168,29.8998 21.3168,29.8998 C19.2658,29.8998 17.3318,30.2888 15.5138,31.0638 C13.6978,31.8428 12.1138,32.9058 10.7628,34.2568 C9.4118,35.6068 8.3468,37.1918 7.5708,39.0078 C6.7938,40.8258 6.4058,42.7588 6.4058,44.8088 C6.4058,46.8598 6.7938,48.7928 7.5708,50.6108 C8.3468,52.4268 9.4118,54.0118 10.7628,55.3618 C12.1138,56.7128 13.6978,57.7778 15.5138,58.5538 C17.3318,59.3308 19.2658,59.7188 21.3168,59.7188 L72.0078,59.7188 Z" id="Fill-77" fill="#E5E5E5"></path>
                    <path d="M82.7568,278.4316 C83.1798,274.2326 84.2528,270.4256 85.9788,267.0096 C87.7028,263.5916 90.0298,260.4026 92.9588,257.4416 C95.6598,254.7076 97.7358,251.7206 99.1838,248.4826 C100.6308,245.2456 101.3568,241.6886 101.3568,237.8166 C101.3568,233.9436 100.6138,230.2976 99.1338,226.8816 C97.6528,223.4636 95.6448,220.4866 93.1068,217.9476 C90.5688,215.4096 87.5888,213.4006 84.1718,211.9196 C80.7538,210.4406 77.1108,209.6986 73.2368,209.6986 C69.3648,209.6986 65.7188,210.4406 62.3028,211.9196 C58.8848,213.4006 55.9068,215.4096 53.3688,217.9476 C50.8298,220.4866 48.8198,223.4636 47.3408,226.8816 C45.8608,230.2976 45.1188,233.9436 45.1188,237.8166 C45.1188,241.6886 45.8428,245.2456 47.2918,248.4826 C48.7388,251.7206 50.8158,254.7076 53.5168,257.4416 C56.4448,260.4026 58.7718,263.5916 60.4968,267.0096 C62.2198,270.4256 63.2948,274.2326 63.7178,278.4316 L82.7568,278.4316 Z" id="Fill-79" fill="#D1D1D1"></path>
                    <path d="M79.4863,297.1772 C80.3313,297.1772 81.0643,296.8692 81.6823,296.2492 C82.3003,295.6322 82.6103,294.8992 82.6103,294.0532 L82.6103,284.6802 L63.8653,284.6802 L63.8653,294.0532 C63.8653,294.8992 64.1733,295.6322 64.7933,296.2492 C65.4103,296.8692 66.1423,297.1772 66.9893,297.1772 L79.4863,297.1772 Z" id="Fill-81" fill="#2E2E2E"></path>
                </g>
                <polygon id="Fill-84" fill="#FFFFFF" points="349.3623 307.6823 349.3623 328.2333 343.1133 328.2333 343.1133 307.6823 335.9363 314.8083 331.5443 310.4163 346.2383 295.7223 360.9303 310.4163 356.5383 314.8083"></polygon>
                <polygon id="Fill-85" fill="#E5E5E5" points="74.1816 210.4992 74.1816 180.7652 44.4526 210.4992"></polygon>
                <polygon id="Fill-86" fill="#E5E5E5" points="317.4316 179.7463 411.6816 179.7463 411.6816 218.8433 336.0636 218.8433 326.1186 228.7833 326.1186 218.8433 317.4316 218.8433"></polygon>
                <polygon id="Fill-87" fill="#FFFFFF" points="337.492 192.65 372.681 192.65 372.681 188.964 337.492 188.964"></polygon>
                <polygon id="Fill-88" fill="#FFFFFF" points="337.492 200.631 375.681 200.631 375.681 196.944 337.492 196.944"></polygon>
                <path d="M387.8535,179.8019 L387.8535,181.8369 C387.8535,182.7679 387.9755,183.6679 388.2165,184.5109 C388.4825,185.4399 388.8495,186.3349 389.3105,187.1699 C389.7905,188.0469 390.3735,188.8879 391.0425,189.6799 C391.7915,190.5639 392.6025,191.4039 393.4565,192.1779 C394.3245,192.9669 395.2425,193.6999 396.1905,194.3619 C396.3425,194.4689 396.4955,194.5739 396.6475,194.6779 C396.7975,194.5749 396.9475,194.4719 397.0965,194.3669 C398.0515,193.7009 398.9705,192.9679 399.8365,192.1809 C400.6895,191.4089 401.4995,190.5699 402.2495,189.6819 C402.9215,188.8879 403.5045,188.0459 403.9835,187.1749 C404.4435,186.3379 404.8115,185.4419 405.0795,184.5089 C405.3205,183.6669 405.4425,182.7679 405.4425,181.8369 L405.4425,179.8019 C405.0805,179.7129 404.7205,179.6159 404.3665,179.5119 C402.3745,178.9299 400.4425,178.0419 398.6235,176.8719 C398.1665,176.5769 397.8355,176.4449 397.6345,176.3839 C397.4605,176.3309 397.1385,176.2649 396.6475,176.2649 C396.1585,176.2649 395.8345,176.3319 395.6505,176.3869 C395.4575,176.4469 395.1295,176.5769 394.6955,176.8579 C392.8565,178.0399 390.9235,178.9289 388.9315,179.5119 C388.5765,179.6159 388.2155,179.7129 387.8535,179.8019 L387.8535,179.8019 Z M396.6445,209.2239 L392.9865,207.1129 C391.6695,206.3509 390.3415,205.5029 389.0395,204.5909 C387.6615,203.6289 386.3235,202.5609 385.0685,201.4199 C383.8125,200.2819 382.6165,199.0439 381.5155,197.7429 C380.3085,196.3169 379.2495,194.7809 378.3735,193.1819 C377.4655,191.5349 376.7385,189.7679 376.2155,187.9399 C375.6565,185.9819 375.3735,183.9279 375.3735,181.8369 L375.3735,168.4249 L382.2985,168.0559 C383.3905,167.9969 384.4435,167.8219 385.4235,167.5339 C386.2695,167.2869 387.1135,166.8949 387.9285,166.3699 C389.2405,165.5209 390.6265,164.8679 392.0335,164.4419 C394.9225,163.5679 398.3785,163.5699 401.2565,164.4399 C402.6735,164.8709 404.0615,165.5249 405.3895,166.3849 C406.1845,166.8959 407.0265,167.2869 407.8725,167.5339 C408.8535,167.8219 409.9055,167.9969 411.0015,168.0559 L417.9225,168.4249 L417.9225,181.8369 C417.9225,183.9309 417.6385,185.9859 417.0775,187.9449 C416.5535,189.7719 415.8285,191.5359 414.9205,193.1869 C414.0425,194.7849 412.9845,196.3189 411.7775,197.7449 C410.6725,199.0509 409.4755,200.2899 408.2205,201.4269 C406.9675,202.5639 405.6295,203.6319 404.2495,204.5949 C402.9655,205.4949 401.6375,206.3439 400.3115,207.1109 L396.6445,209.2239 Z" id="Fill-89" fill="#FFFFFF"></path>
                <polygon id="Fill-91" fill="#FFFFFF" points="337.492 208.611 383.407 208.611 383.407 204.925 337.492 204.925"></polygon>
                <g id="Group-98" transform="translate(381.000000, 168.654000)">
                    <path d="M15.1104,33.0562 C13.9434,32.3812 12.7674,31.6292 11.6174,30.8242 C10.4504,30.0092 9.3224,29.1082 8.2644,28.1472 C7.2084,27.1892 6.2034,26.1492 5.2804,25.0582 C4.3424,23.9512 3.5224,22.7632 2.8434,21.5262 C2.1594,20.2832 1.6114,18.9532 1.2164,17.5722 C0.8164,16.1712 0.6134,14.6942 0.6134,13.1822 L0.6134,5.6872 L1.6314,5.6332 C3.2054,5.5482 4.7354,5.2912 6.1764,4.8692 C7.5964,4.4532 8.9844,3.8132 10.3024,2.9662 C11.1394,2.4242 11.9954,2.0172 12.8434,1.7602 C13.6994,1.5012 14.6424,1.3702 15.6474,1.3702 C16.6544,1.3702 17.5974,1.5012 18.4504,1.7592 C19.2994,2.0172 20.1554,2.4232 20.9964,2.9682 C22.3114,3.8132 23.6984,4.4532 25.1204,4.8692 C26.5604,5.2912 28.0894,5.5482 29.6664,5.6332 L30.6824,5.6872 L30.6824,13.1822 C30.6824,14.6942 30.4794,16.1712 30.0784,17.5722 C29.6824,18.9532 29.1354,20.2832 28.4524,21.5262 C27.7724,22.7632 26.9524,23.9512 26.0144,25.0582 C25.0914,26.1492 24.0894,27.1892 23.0314,28.1472 C21.9714,29.1092 20.8434,30.0102 19.6774,30.8242 C18.5244,31.6322 17.3494,32.3822 16.1854,33.0562 L15.6474,33.3662 L15.1104,33.0562 Z" id="Fill-92" fill="#FFFFFF"></path>
                    <path d="M15.3604,32.623 L15.6474,32.789 L15.9354,32.623 C17.0934,31.953 18.2564,31.209 19.3904,30.415 C20.5374,29.614 21.6484,28.727 22.6954,27.777 C23.7304,26.839 24.7184,25.816 25.6324,24.736 C26.5504,23.652 27.3514,22.491 28.0134,21.286 C28.6794,20.075 29.2134,18.779 29.5974,17.435 C29.9854,16.08 30.1824,14.649 30.1824,13.183 L30.1824,6.162 L29.6394,6.133 C28.0244,6.045 26.4574,5.782 24.9794,5.35 C23.5144,4.921 22.0834,4.261 20.7254,3.389 C19.9244,2.87 19.1104,2.482 18.3044,2.238 C16.6964,1.751 14.6044,1.75 12.9884,2.239 C12.1864,2.482 11.3744,2.868 10.5744,3.386 C9.2144,4.26 7.7834,4.92 6.3174,5.35 C4.8394,5.782 3.2714,6.045 1.6584,6.133 L1.1134,6.162 L1.1134,13.183 C1.1134,14.648 1.3094,16.079 1.6974,17.435 C2.0814,18.777 2.6144,20.072 3.2814,21.285 C3.9434,22.49 4.7444,23.651 5.6624,24.735 C6.5714,25.81 7.5594,26.833 8.6004,27.777 C9.6444,28.726 10.7564,29.612 11.9034,30.414 C13.0484,31.216 14.2114,31.958 15.3604,32.623 L15.3604,32.623 Z M15.6474,33.943 L14.8604,33.489 C13.6864,32.81 12.4994,32.051 11.3304,31.234 C10.1484,30.408 9.0034,29.494 7.9284,28.518 C6.8554,27.544 5.8364,26.489 4.8984,25.381 C3.9374,24.246 3.0984,23.03 2.4054,21.767 C1.7024,20.489 1.1394,19.123 0.7364,17.709 C0.3234,16.264 0.1134,14.741 0.1134,13.183 L0.1134,5.213 L1.6044,5.134 C3.1414,5.051 4.6324,4.801 6.0364,4.39 C7.4104,3.987 8.7554,3.367 10.0324,2.546 C10.9094,1.977 11.8064,1.552 12.6984,1.282 C14.5044,0.736 16.7974,0.737 18.5944,1.281 C19.4914,1.553 20.3894,1.979 21.2674,2.549 C22.5434,3.368 23.8874,3.988 25.2604,4.39 C26.6644,4.801 28.1554,5.051 29.6934,5.134 L31.1824,5.213 L31.1824,13.183 C31.1824,14.742 30.9724,16.265 30.5584,17.71 C30.1534,19.126 29.5914,20.491 28.8904,21.767 C28.1954,23.031 27.3564,24.247 26.3964,25.382 C25.4544,26.496 24.4344,27.551 23.3674,28.518 C22.2894,29.496 21.1444,30.41 19.9644,31.234 C18.8064,32.045 17.6194,32.804 16.4364,33.489 L15.6474,33.943 Z" id="Fill-94" fill="#0078D7"></path>
                    <path d="M15.1104,33.0562 C13.9434,32.3812 12.7674,31.6292 11.6174,30.8242 C10.4504,30.0092 9.3224,29.1082 8.2644,28.1472 C7.2084,27.1892 6.2034,26.1492 5.2804,25.0582 C4.3424,23.9512 3.5224,22.7632 2.8434,21.5262 C2.1594,20.2832 1.6114,18.9532 1.2164,17.5722 C0.8164,16.1712 0.6134,14.6942 0.6134,13.1822 L0.6134,5.6872 L1.6314,5.6332 C3.2054,5.5482 4.7354,5.2912 6.1764,4.8692 C7.5964,4.4532 8.9844,3.8132 10.3024,2.9662 C11.1394,2.4242 11.9954,2.0172 12.8434,1.7602 C13.6994,1.5012 14.6424,1.3702 15.6474,1.3702 C16.6544,1.3702 17.5974,1.5012 18.4504,1.7592 C19.2994,2.0172 20.1554,2.4232 20.9964,2.9682 C22.3114,3.8132 23.6984,4.4532 25.1204,4.8692 C26.5604,5.2912 28.0894,5.5482 29.6664,5.6332 L30.6824,5.6872 L30.6824,13.1822 C30.6824,14.6942 30.4794,16.1712 30.0784,17.5722 C29.6824,18.9532 29.1354,20.2832 28.4524,21.5262 C27.7724,22.7632 26.9524,23.9512 26.0144,25.0582 C25.0914,26.1492 24.0894,27.1892 23.0314,28.1472 C21.9714,29.1092 20.8434,30.0102 19.6774,30.8242 C18.5244,31.6322 17.3494,32.3822 16.1854,33.0562 L15.6474,33.3662 L15.1104,33.0562 Z" id="Fill-96" fill="#0078D7"></path>
                </g>
                <polyline id="Fill-99" fill="#FFFFFF" points="395.5176 194.7233 395.5176 192.5753 397.6646 192.5753"></polyline>
                <polygon id="Fill-100" fill="#FFFFFF" points="395.517 190.479 397.665 190.479 397.665 175.445 395.517 175.445"></polygon>
                <polyline id="Fill-101" fill="#FFFFFF" points="397.665 192.5754 397.665 194.7234 395.517 194.7234"></polyline>
                <polygon id="Fill-102" fill="#E5E5E5" points="506.7549 520.021 506.7549 524 502.7739 524 502.7739 526.653 509.4069 526.653 509.4069 520.021"></polygon>
                <path d="M484.344,526.653 L492.218,526.653 L492.218,524.001 L484.344,524.001 L484.344,526.653 Z M468.596,526.653 L476.47,526.653 L476.47,524.001 L468.596,524.001 L468.596,526.653 Z M452.848,526.653 L460.722,526.653 L460.722,524.001 L452.848,524.001 L452.848,526.653 Z M437.099,526.653 L444.973,526.653 L444.973,524.001 L437.099,524.001 L437.099,526.653 Z M421.351,526.653 L429.225,526.653 L429.225,524.001 L421.351,524.001 L421.351,526.653 Z M405.604,526.653 L413.477,526.653 L413.477,524.001 L405.604,524.001 L405.604,526.653 Z M389.856,526.653 L397.73,526.653 L397.73,524.001 L389.856,524.001 L389.856,526.653 Z M374.107,526.653 L381.981,526.653 L381.981,524.001 L374.107,524.001 L374.107,526.653 Z M358.359,526.653 L366.233,526.653 L366.233,524.001 L358.359,524.001 L358.359,526.653 Z M342.611,526.653 L350.485,526.653 L350.485,524.001 L342.611,524.001 L342.611,526.653 Z M326.864,526.653 L334.737,526.653 L334.737,524.001 L326.864,524.001 L326.864,526.653 Z M311.116,526.653 L318.99,526.653 L318.99,524.001 L311.116,524.001 L311.116,526.653 Z M295.368,526.653 L303.242,526.653 L303.242,524.001 L295.368,524.001 L295.368,526.653 Z M279.62,526.653 L287.494,526.653 L287.494,524.001 L279.62,524.001 L279.62,526.653 Z M263.872,526.653 L271.746,526.653 L271.746,524.001 L263.872,524.001 L263.872,526.653 Z M248.124,526.653 L255.998,526.653 L255.998,524.001 L248.124,524.001 L248.124,526.653 Z M232.376,526.653 L240.249,526.653 L240.249,524.001 L232.376,524.001 L232.376,526.653 Z M216.628,526.653 L224.502,526.653 L224.502,524.001 L216.628,524.001 L216.628,526.653 Z M200.88,526.653 L208.754,526.653 L208.754,524.001 L200.88,524.001 L200.88,526.653 Z M185.132,526.653 L193.006,526.653 L193.006,524.001 L185.132,524.001 L185.132,526.653 Z M169.384,526.653 L177.258,526.653 L177.258,524.001 L169.384,524.001 L169.384,526.653 Z M153.635,526.653 L161.509,526.653 L161.509,524.001 L153.635,524.001 L153.635,526.653 Z M137.888,526.653 L145.761,526.653 L145.761,524.001 L137.888,524.001 L137.888,526.653 Z M122.14,526.653 L130.014,526.653 L130.014,524.001 L122.14,524.001 L122.14,526.653 Z M106.392,526.653 L114.266,526.653 L114.266,524.001 L106.392,524.001 L106.392,526.653 Z M90.644,526.653 L98.518,526.653 L98.518,524.001 L90.644,524.001 L90.644,526.653 Z M74.895,526.653 L82.769,526.653 L82.769,524.001 L74.895,524.001 L74.895,526.653 Z M59.147,526.653 L67.021,526.653 L67.021,524.001 L59.147,524.001 L59.147,526.653 Z M43.4,526.653 L51.273,526.653 L51.273,524.001 L43.4,524.001 L43.4,526.653 Z M27.652,526.653 L35.526,526.653 L35.526,524.001 L27.652,524.001 L27.652,526.653 Z M11.911,526.653 L19.777,526.653 L19.777,524.001 L11.911,524.001 L11.911,526.653 Z" id="Fill-103" fill="#E5E5E5"></path>
                <polygon id="Fill-104" fill="#E5E5E5" points="0.0009 520.021 0.0009 526.653 6.6329 526.653 6.6329 524.001 2.6529 524.001 2.6529 520.021"></polygon>
                <path d="M0,19.744 L2.652,19.744 L2.652,11.872 L0,11.872 L0,19.744 Z M0,35.544 L2.652,35.544 L2.652,27.644 L0,27.644 L0,35.544 Z M0,51.344 L2.652,51.344 L2.652,43.444 L0,43.444 L0,51.344 Z M0,67.144 L2.652,67.144 L2.652,59.244 L0,59.244 L0,67.144 Z M0,82.943 L2.652,82.943 L2.652,75.044 L0,75.044 L0,82.943 Z M0,98.744 L2.652,98.744 L2.652,90.845 L0,90.845 L0,98.744 Z M0,114.544 L2.652,114.544 L2.652,106.644 L0,106.644 L0,114.544 Z M0,130.344 L2.652,130.344 L2.652,122.443 L0,122.443 L0,130.344 Z M0,146.144 L2.652,146.144 L2.652,138.244 L0,138.244 L0,146.144 Z M0,161.943 L2.652,161.943 L2.652,154.044 L0,154.044 L0,161.943 Z M0,177.744 L2.652,177.744 L2.652,169.844 L0,169.844 L0,177.744 Z M0,193.543 L2.652,193.543 L2.652,185.644 L0,185.644 L0,193.543 Z M0,209.344 L2.652,209.344 L2.652,201.444 L0,201.444 L0,209.344 Z M0,225.144 L2.652,225.144 L2.652,217.244 L0,217.244 L0,225.144 Z M0,240.944 L2.652,240.944 L2.652,233.044 L0,233.044 L0,240.944 Z M0,256.743 L2.652,256.743 L2.652,248.844 L0,248.844 L0,256.743 Z M0,272.543 L2.652,272.543 L2.652,264.644 L0,264.644 L0,272.543 Z M0,288.344 L2.652,288.344 L2.652,280.444 L0,280.444 L0,288.344 Z M0,304.143 L2.652,304.143 L2.652,296.243 L0,296.243 L0,304.143 Z M0,319.944 L2.652,319.944 L2.652,312.044 L0,312.044 L0,319.944 Z M0,335.744 L2.652,335.744 L2.652,327.843 L0,327.843 L0,335.744 Z M0,351.544 L2.652,351.544 L2.652,343.644 L0,343.644 L0,351.544 Z M0,367.343 L2.652,367.343 L2.652,359.444 L0,359.444 L0,367.343 Z M0,383.144 L2.652,383.144 L2.652,375.244 L0,375.244 L0,383.144 Z M0,398.944 L2.652,398.944 L2.652,391.044 L0,391.044 L0,398.944 Z M0,414.743 L2.652,414.743 L2.652,406.843 L0,406.843 L0,414.743 Z M0,430.544 L2.652,430.544 L2.652,422.644 L0,422.644 L0,430.544 Z M0,446.343 L2.652,446.343 L2.652,438.443 L0,438.443 L0,446.343 Z M0,462.144 L2.652,462.144 L2.652,454.244 L0,454.244 L0,462.144 Z M0,477.943 L2.652,477.943 L2.652,470.044 L0,470.044 L0,477.943 Z M0,493.744 L2.652,493.744 L2.652,485.844 L0,485.844 L0,493.744 Z M0,509.543 L2.652,509.543 L2.652,501.644 L0,501.644 L0,509.543 Z" id="Fill-105" fill="#E5E5E5"></path>
                <polygon id="Fill-106" fill="#E5E5E5" points="0 0.001 0 6.633 2.652 6.633 2.652 2.654 6.633 2.654 6.633 0.001"></polygon>
                <path d="M489.63,2.654 L497.496,2.654 L497.496,0.001 L489.63,0.001 L489.63,2.654 Z M473.882,2.654 L481.756,2.654 L481.756,0.001 L473.882,0.001 L473.882,2.654 Z M458.134,2.654 L466.007,2.654 L466.007,0.001 L458.134,0.001 L458.134,2.654 Z M442.386,2.654 L450.26,2.654 L450.26,0.001 L442.386,0.001 L442.386,2.654 Z M426.638,2.654 L434.512,2.654 L434.512,0.001 L426.638,0.001 L426.638,2.654 Z M410.89,2.654 L418.764,2.654 L418.764,0.001 L410.89,0.001 L410.89,2.654 Z M395.141,2.654 L403.015,2.654 L403.015,0.001 L395.141,0.001 L395.141,2.654 Z M379.393,2.654 L387.267,2.654 L387.267,0.001 L379.393,0.001 L379.393,2.654 Z M363.646,2.654 L371.519,2.654 L371.519,0.001 L363.646,0.001 L363.646,2.654 Z M347.898,2.654 L355.772,2.654 L355.772,0.001 L347.898,0.001 L347.898,2.654 Z M332.15,2.654 L340.024,2.654 L340.024,0.001 L332.15,0.001 L332.15,2.654 Z M316.401,2.654 L324.275,2.654 L324.275,0.001 L316.401,0.001 L316.401,2.654 Z M300.653,2.654 L308.527,2.654 L308.527,0.001 L300.653,0.001 L300.653,2.654 Z M284.905,2.654 L292.779,2.654 L292.779,0.001 L284.905,0.001 L284.905,2.654 Z M269.158,2.654 L277.031,2.654 L277.031,0.001 L269.158,0.001 L269.158,2.654 Z M253.409,2.654 L261.283,2.654 L261.283,0.001 L253.409,0.001 L253.409,2.654 Z M237.661,2.654 L245.535,2.654 L245.535,0.001 L237.661,0.001 L237.661,2.654 Z M221.913,2.654 L229.787,2.654 L229.787,0.001 L221.913,0.001 L221.913,2.654 Z M206.165,2.654 L214.039,2.654 L214.039,0.001 L206.165,0.001 L206.165,2.654 Z M190.417,2.654 L198.291,2.654 L198.291,0.001 L190.417,0.001 L190.417,2.654 Z M174.67,2.654 L182.543,2.654 L182.543,0.001 L174.67,0.001 L174.67,2.654 Z M158.922,2.654 L166.796,2.654 L166.796,0.001 L158.922,0.001 L158.922,2.654 Z M143.174,2.654 L151.048,2.654 L151.048,0.001 L143.174,0.001 L143.174,2.654 Z M127.426,2.654 L135.3,2.654 L135.3,0.001 L127.426,0.001 L127.426,2.654 Z M111.677,2.654 L119.551,2.654 L119.551,0.001 L111.677,0.001 L111.677,2.654 Z M95.93,2.654 L103.803,2.654 L103.803,0.001 L95.93,0.001 L95.93,2.654 Z M80.182,2.654 L88.056,2.654 L88.056,0.001 L80.182,0.001 L80.182,2.654 Z M64.434,2.654 L72.308,2.654 L72.308,0.001 L64.434,0.001 L64.434,2.654 Z M48.686,2.654 L56.56,2.654 L56.56,0.001 L48.686,0.001 L48.686,2.654 Z M32.937,2.654 L40.811,2.654 L40.811,0.001 L32.937,0.001 L32.937,2.654 Z M17.189,2.654 L25.063,2.654 L25.063,0.001 L17.189,0.001 L17.189,2.654 Z" id="Fill-107" fill="#E5E5E5"></path>
                <polygon id="Fill-108" fill="#E5E5E5" points="502.7742 0.001 502.7742 2.654 506.7542 2.654 506.7542 6.633 509.4062 6.633 509.4062 0.001"></polygon>
                <path d="M506.755,25.011 L509.407,25.011 L509.407,17.111 L506.755,17.111 L506.755,25.011 Z M506.755,40.812 L509.407,40.812 L509.407,32.911 L506.755,32.911 L506.755,40.812 Z M506.755,56.611 L509.407,56.611 L509.407,48.711 L506.755,48.711 L506.755,56.611 Z M506.755,72.411 L509.407,72.411 L509.407,64.512 L506.755,64.512 L506.755,72.411 Z M506.755,88.211 L509.407,88.211 L509.407,80.312 L506.755,80.312 L506.755,88.211 Z M506.755,104.011 L509.407,104.011 L509.407,96.111 L506.755,96.111 L506.755,104.011 Z M506.755,119.811 L509.407,119.811 L509.407,111.911 L506.755,111.911 L506.755,119.811 Z M506.755,135.611 L509.407,135.611 L509.407,127.711 L506.755,127.711 L506.755,135.611 Z M506.755,151.411 L509.407,151.411 L509.407,143.511 L506.755,143.511 L506.755,151.411 Z M506.755,167.211 L509.407,167.211 L509.407,159.311 L506.755,159.311 L506.755,167.211 Z M506.755,183.011 L509.407,183.011 L509.407,175.112 L506.755,175.112 L506.755,183.011 Z M506.755,198.811 L509.407,198.811 L509.407,190.911 L506.755,190.911 L506.755,198.811 Z M506.755,214.611 L509.407,214.611 L509.407,206.711 L506.755,206.711 L506.755,214.611 Z M506.755,230.411 L509.407,230.411 L509.407,222.511 L506.755,222.511 L506.755,230.411 Z M506.755,246.211 L509.407,246.211 L509.407,238.311 L506.755,238.311 L506.755,246.211 Z M506.755,262.011 L509.407,262.011 L509.407,254.111 L506.755,254.111 L506.755,262.011 Z M506.755,277.81 L509.407,277.81 L509.407,269.911 L506.755,269.911 L506.755,277.81 Z M506.755,293.611 L509.407,293.611 L509.407,285.712 L506.755,285.712 L506.755,293.611 Z M506.755,309.411 L509.407,309.411 L509.407,301.511 L506.755,301.511 L506.755,309.411 Z M506.755,325.211 L509.407,325.211 L509.407,317.311 L506.755,317.311 L506.755,325.211 Z M506.755,341.011 L509.407,341.011 L509.407,333.111 L506.755,333.111 L506.755,341.011 Z M506.755,356.811 L509.407,356.811 L509.407,348.911 L506.755,348.911 L506.755,356.811 Z M506.755,372.611 L509.407,372.611 L509.407,364.711 L506.755,364.711 L506.755,372.611 Z M506.755,388.411 L509.407,388.411 L509.407,380.511 L506.755,380.511 L506.755,388.411 Z M506.755,404.211 L509.407,404.211 L509.407,396.312 L506.755,396.312 L506.755,404.211 Z M506.755,420.011 L509.407,420.011 L509.407,412.111 L506.755,412.111 L506.755,420.011 Z M506.755,435.812 L509.407,435.812 L509.407,427.912 L506.755,427.912 L506.755,435.812 Z M506.755,451.611 L509.407,451.611 L509.407,443.711 L506.755,443.711 L506.755,451.611 Z M506.755,467.411 L509.407,467.411 L509.407,459.511 L506.755,459.511 L506.755,467.411 Z M506.755,483.211 L509.407,483.211 L509.407,475.311 L506.755,475.311 L506.755,483.211 Z M506.755,499.011 L509.407,499.011 L509.407,491.111 L506.755,491.111 L506.755,499.011 Z M506.755,514.782 L509.407,514.782 L509.407,506.912 L506.755,506.912 L506.755,514.782 Z" id="Fill-109" fill="#E5E5E5"></path>
                <g id="Group-124" transform="translate(385.000000, 52.654000)">
                    <path d="M89.9414,356.9438 C81.4114,348.4128 67.5804,348.4128 59.0474,356.9438 C51.6054,364.3858 50.6584,375.8608 56.2004,384.3328 L74.5914,410.6838 L92.7904,384.3328 C98.3334,375.8608 97.3844,364.3868 89.9414,356.9438" id="Fill-110" fill="#0078D7"></path>
                    <path d="M86.252,372.7178 C86.252,378.9878 81.169,384.0708 74.899,384.0708 C68.629,384.0708 63.547,378.9878 63.547,372.7178 C63.547,366.4478 68.629,361.3648 74.899,361.3648 C81.169,361.3648 86.252,366.4478 86.252,372.7178" id="Fill-112" fill="#E5E5E5"></path>
                    <path d="M74.8994,362.6553 C69.3504,362.6553 64.8364,367.1693 64.8364,372.7183 C64.8364,378.2663 69.3504,382.7803 74.8994,382.7803 C80.4484,382.7803 84.9624,378.2663 84.9624,372.7183 C84.9624,367.1693 80.4484,362.6553 74.8994,362.6553 M74.8994,385.3613 C67.9284,385.3613 62.2564,379.6893 62.2564,372.7183 C62.2564,365.7463 67.9284,360.0753 74.8994,360.0753 C81.8704,360.0753 87.5424,365.7463 87.5424,372.7183 C87.5424,379.6893 81.8704,385.3613 74.8994,385.3613" id="Fill-114" fill="#FFFFFF"></path>
                    <path d="M60.3018,28.3916 C60.2568,28.1946 60.2048,27.9996 60.1488,27.8066 C60.0928,27.6136 60.0308,27.4206 59.9628,27.2306 C59.8958,27.0406 59.8338,26.8486 59.7778,26.6556 L66.6118,19.0286 L57.8838,8.1786 L48.9488,13.1646 C48.2708,12.7576 47.5758,12.3756 46.8668,12.0236 L46.2658,1.8096 L32.4238,0.2876 L29.6708,10.1506 C29.4768,10.2076 29.2808,10.2586 29.0858,10.3046 C28.8888,10.3506 28.6938,10.4016 28.5008,10.4576 C28.3068,10.5136 28.1148,10.5766 27.9248,10.6426 C27.7348,10.7106 27.5428,10.7716 27.3498,10.8286 L19.7228,3.9946 L8.8728,12.7226 L13.8588,21.6566 C13.4488,22.3356 13.0698,23.0306 12.7178,23.7386 L2.5038,24.3406 L0.9818,38.1826 L10.8448,40.9356 C10.9018,41.1296 10.9518,41.3246 10.9978,41.5206 C11.0438,41.7176 11.0948,41.9126 11.1518,42.1056 C11.2078,42.2996 11.2698,42.4906 11.3368,42.6816 C11.4048,42.8716 11.4658,43.0636 11.5218,43.2566 L4.6878,50.8836 L13.4168,61.7336 L22.3508,56.7476 C23.0298,57.1556 23.7228,57.5366 24.4328,57.8886 L25.0338,68.1026 L38.8768,69.6246 L41.6298,59.7616 C41.8228,59.7046 42.0188,59.6546 42.2148,59.6076 C42.4098,59.5626 42.6068,59.5116 42.7998,59.4546 C42.9918,59.3986 43.1848,59.3366 43.3748,59.2696 C43.5658,59.2026 43.7568,59.1406 43.9498,59.0836 L51.5758,65.9186 L62.4278,57.1896 L57.4418,48.2556 C57.8498,47.5766 58.2298,46.8826 58.5828,46.1736 L68.7968,45.5716 L70.3188,31.7296 L60.4548,28.9766 C60.3988,28.7826 60.3478,28.5886 60.3018,28.3916 M48.1978,36.4186 C47.9928,38.0766 47.5028,39.6126 46.7268,41.0286 C45.9498,42.4436 44.9188,43.6846 43.6318,44.7476 C42.3458,45.8116 40.8638,46.5876 39.1868,47.0766 C37.5108,47.5656 35.8438,47.7086 34.1868,47.5036 C32.5308,47.2996 30.9928,46.8096 29.5768,46.0326 C28.1608,45.2566 26.9218,44.2266 25.8588,42.9386 C24.7958,41.6516 24.0188,40.1696 23.5298,38.4936 C23.0408,36.8176 22.8988,35.1516 23.1028,33.4936 C23.3068,31.8366 23.7968,30.2996 24.5728,28.8836 C25.3498,27.4686 26.3818,26.2286 27.6678,25.1646 C28.9548,24.1016 30.4368,23.3246 32.1128,22.8356 C33.7888,22.3466 35.4558,22.2046 37.1128,22.4086 C38.7698,22.6136 40.3068,23.1026 41.7218,23.8796 C43.1378,24.6556 44.3778,25.6876 45.4418,26.9746 C46.5048,28.2616 47.2808,29.7426 47.7708,31.4186 C48.2598,33.0956 48.4018,34.7626 48.1978,36.4186" id="Fill-116" fill="#0078D7"></path>
                    <path d="M49.2314,86.1533 L50.3814,81.1283 L45.3574,82.2793 L40.5744,70.7573 L44.9614,68.0303 L40.5744,65.3023 L45.3574,53.7813 L50.3814,54.9323 L49.2314,49.9073 L60.7524,45.1243 L63.4804,49.5113 L66.2084,45.1243 L77.7284,49.9073 L76.5784,54.9323 L81.6034,53.7813 L86.3854,65.3023 L81.9984,68.0303 L86.3854,70.7573 L81.6034,82.2793 L76.5784,81.1283 L77.7284,86.1533 L66.2084,90.9363 L63.4804,86.5483 L60.7524,90.9363 L49.2314,86.1533 Z M63.4804,63.4473 C62.8374,63.4473 62.2574,63.5623 61.7094,63.7983 C61.1364,64.0453 60.6554,64.3693 60.2374,64.7863 C59.8184,65.2053 59.4954,65.6873 59.2484,66.2593 C59.0114,66.8093 58.8974,67.3893 58.8974,68.0303 C58.8974,68.6713 59.0114,69.2503 59.2484,69.8013 C59.4954,70.3733 59.8184,70.8543 60.2364,71.2723 C60.6564,71.6913 61.1384,72.0153 61.7104,72.2613 C62.2584,72.4993 62.8374,72.6133 63.4804,72.6133 C64.1224,72.6133 64.7004,72.4993 65.2484,72.2623 C65.8224,72.0153 66.3044,71.6913 66.7234,71.2733 C67.1424,70.8543 67.4654,70.3723 67.7114,69.8013 C67.9484,69.2513 68.0634,68.6723 68.0634,68.0303 C68.0634,67.3883 67.9484,66.8093 67.7104,66.2583 C67.4654,65.6883 67.1424,65.2063 66.7234,64.7863 C66.3044,64.3693 65.8234,64.0453 65.2484,63.7973 C64.7014,63.5623 64.1224,63.4473 63.4804,63.4473 L63.4804,63.4473 Z" id="Fill-118" fill="#E5E5E5"></path>
                    <path d="M67.2715,48.4385 L74.6425,51.4985 L73.3335,57.2145 C73.6675,57.5225 73.9885,57.8435 74.2955,58.1765 L80.0115,56.8675 L83.0715,64.2385 L78.0875,67.3375 C78.0875,67.4525 78.0905,67.5685 78.0965,67.6835 C78.1035,67.7995 78.1065,67.9145 78.1065,68.0305 C78.1065,68.1455 78.1035,68.2615 78.0965,68.3765 C78.0905,68.4925 78.0875,68.6075 78.0875,68.7225 L83.0715,71.8215 L80.0115,79.1925 L74.2955,77.8835 C73.9885,78.2175 73.6675,78.5385 73.3335,78.8465 L74.6425,84.5615 L67.2715,87.6215 L64.1725,82.6375 C64.0575,82.6375 63.9415,82.6415 63.8265,82.6465 C63.7105,82.6535 63.5955,82.6565 63.4795,82.6565 C63.3645,82.6565 63.2505,82.6535 63.1335,82.6465 C63.0185,82.6415 62.9025,82.6375 62.7875,82.6375 L59.6885,87.6215 L52.3175,84.5615 L53.6265,78.8465 C53.2925,78.5385 52.9725,78.2175 52.6655,77.8835 L46.9485,79.1925 L43.8885,71.8215 L48.8735,68.7225 C48.8735,68.6075 48.8695,68.4925 48.8635,68.3765 C48.8565,68.2615 48.8535,68.1455 48.8535,68.0305 C48.8535,67.9145 48.8565,67.7995 48.8635,67.6835 C48.8695,67.5685 48.8735,67.4525 48.8735,67.3375 L43.8885,64.2385 L46.9485,56.8675 L52.6655,58.1765 C52.9725,57.8435 53.2925,57.5225 53.6265,57.2145 L52.3175,51.4985 L59.6885,48.4385 L62.7875,53.4225 C62.9025,53.4225 63.0185,53.4195 63.1335,53.4135 C63.2505,53.4075 63.3645,53.4035 63.4795,53.4035 C63.5955,53.4035 63.7105,53.4075 63.8265,53.4135 C63.9415,53.4195 64.0575,53.4225 64.1725,53.4225 L67.2715,48.4385 Z M63.4795,75.2665 C64.4805,75.2665 65.4205,75.0775 66.2995,74.6985 C67.1785,74.3205 67.9445,73.8035 68.5995,73.1495 C69.2535,72.4955 69.7705,71.7295 70.1485,70.8495 C70.5265,69.9705 70.7165,69.0315 70.7165,68.0305 C70.7165,67.0295 70.5265,66.0895 70.1485,65.2105 C69.7705,64.3325 69.2535,63.5655 68.5995,62.9105 C67.9445,62.2565 67.1785,61.7405 66.2995,61.3615 C65.4205,60.9835 64.4805,60.7935 63.4795,60.7935 C62.4795,60.7935 61.5405,60.9835 60.6605,61.3615 C59.7815,61.7405 59.0155,62.2565 58.3605,62.9105 C57.7075,63.5655 57.1895,64.3325 56.8115,65.2105 C56.4335,66.0895 56.2435,67.0295 56.2435,68.0305 C56.2435,69.0315 56.4335,69.9705 56.8115,70.8495 C57.1895,71.7295 57.7075,72.4955 58.3605,73.1495 C59.0155,73.8035 59.7815,74.3205 60.6605,74.6985 C61.5405,75.0775 62.4795,75.2665 63.4795,75.2665 L63.4795,75.2665 Z M65.1435,41.8095 L63.4805,44.4865 L61.8165,41.8095 L57.6545,43.5375 L50.2835,46.5975 L46.1455,48.3155 L46.8525,51.4025 L43.7655,50.6955 L42.0475,54.8335 L38.9875,62.2045 L37.2595,66.3665 L39.9365,68.0305 L37.2595,69.6945 L38.9875,73.8565 L42.0475,81.2275 L43.7655,85.3645 L46.8525,84.6585 L46.1455,87.7455 L50.2835,89.4625 L57.6545,92.5225 L61.8165,94.2505 L63.4805,91.5745 L65.1435,94.2505 L69.3065,92.5225 L76.6775,89.4625 L80.8145,87.7445 L80.1085,84.6585 L83.1945,85.3645 L84.9125,81.2275 L87.9725,73.8565 L89.7005,69.6945 L87.0235,68.0305 L89.7005,66.3665 L87.9725,62.2045 L84.9125,54.8335 L83.1945,50.6955 L80.1085,51.4025 L80.8145,48.3155 L76.6765,46.5975 L69.3055,43.5375 L65.1435,41.8095 Z M63.4795,69.9605 C63.2025,69.9605 62.9735,69.9175 62.7615,69.8265 C62.4985,69.7125 62.2925,69.5765 62.1125,69.3975 C61.9335,69.2185 61.7975,69.0135 61.6855,68.7525 C61.5935,68.5375 61.5505,68.3075 61.5505,68.0305 C61.5505,67.7525 61.5935,67.5235 61.6855,67.3075 C61.7975,67.0475 61.9345,66.8415 62.1135,66.6625 C62.2925,66.4845 62.4985,66.3485 62.7615,66.2345 C62.9735,66.1435 63.2025,66.1005 63.4795,66.1005 C63.7575,66.1005 63.9865,66.1435 64.2015,66.2355 C64.4625,66.3485 64.6685,66.4845 64.8475,66.6635 C65.0265,66.8425 65.1625,67.0475 65.2745,67.3095 C65.3665,67.5235 65.4105,67.7525 65.4105,68.0305 C65.4105,68.3075 65.3675,68.5375 65.2745,68.7515 C65.1625,69.0135 65.0265,69.2185 64.8475,69.3975 C64.6685,69.5765 64.4635,69.7125 64.2015,69.8245 C63.9865,69.9175 63.7585,69.9605 63.4795,69.9605 L63.4795,69.9605 Z" id="Fill-120" fill="#FFFFFF"></path>
                    <path d="M70.0137,318.3472 C67.8587,318.3472 65.6087,317.9932 63.2647,317.2852 C60.9197,316.5762 58.5667,315.5892 56.2007,314.3222 C53.8367,313.0562 51.5027,311.5532 49.1997,309.8182 C46.8947,308.0822 44.7037,306.1882 42.6287,304.1312 C40.5547,302.0772 38.6397,299.8972 36.8827,297.5922 C35.1267,295.2882 33.6067,292.9492 32.3207,290.5752 C31.0337,288.2012 30.0247,285.8262 29.2967,283.4512 C28.5697,281.0782 28.2047,278.7742 28.2047,276.5392 C28.2047,275.1222 28.3387,273.9302 28.6097,272.9622 C28.8777,271.9962 29.2777,271.1212 29.8067,270.3442 C30.3337,269.5652 30.9737,268.8082 31.7217,268.0692 C32.4707,267.3312 33.3227,266.4832 34.2797,265.5262 C34.8197,264.9872 35.4667,264.7172 36.2267,264.7172 C36.5847,264.7172 37.0077,264.8622 37.4967,265.1512 C37.9867,265.4412 38.4997,265.8152 39.0377,266.2742 C39.5767,266.7322 40.1307,267.2472 40.7007,267.8152 C41.2687,268.3832 41.8077,268.9432 42.3157,269.4912 C42.8247,270.0402 43.2927,270.5492 43.7227,271.0172 C44.1507,271.4862 44.4947,271.8502 44.7537,272.1102 C45.2937,272.6482 45.5637,273.3072 45.5637,274.0842 C45.5637,274.6042 45.4127,275.0822 45.1147,275.5212 C44.8157,275.9612 44.4457,276.3992 44.0067,276.8382 C43.5677,277.2772 43.0827,277.7312 42.5557,278.2002 C42.0257,278.6692 41.5417,279.1822 41.1047,279.7412 C40.6637,280.3002 40.2957,280.9232 39.9957,281.6122 C39.6977,282.2992 39.5477,283.0842 39.5477,283.9612 C39.5477,284.8392 39.7107,285.6822 40.0407,286.4892 C40.3697,287.2972 40.8437,288.0112 41.4627,288.6292 L57.9517,305.1192 C58.5717,305.7382 59.2847,306.2122 60.0917,306.5412 C60.9007,306.8702 61.7427,307.0342 62.6207,307.0342 C63.4977,307.0342 64.2827,306.8852 64.9707,306.5862 C65.6587,306.2862 66.2827,305.9172 66.8397,305.4782 C67.3997,305.0392 67.9127,304.5572 68.3817,304.0272 C68.8507,303.4982 69.3047,303.0152 69.7437,302.5752 C70.1837,302.1372 70.6207,301.7682 71.0617,301.4682 C71.4987,301.1692 71.9787,301.0192 72.4967,301.0192 C73.2757,301.0192 73.9347,301.2892 74.4727,301.8272 C74.7327,302.0872 75.0957,302.4312 75.5657,302.8592 C76.0337,303.2892 76.5407,303.7582 77.0907,304.2662 C77.6397,304.7752 78.1987,305.3142 78.7677,305.8822 C79.3347,306.4512 79.8497,307.0042 80.3087,307.5442 C80.7677,308.0822 81.1407,308.5962 81.4307,309.0852 C81.7207,309.5742 81.8647,309.9972 81.8647,310.3562 C81.8647,311.1152 81.5957,311.7632 81.0567,312.3022 C80.0987,313.2602 79.2507,314.1182 78.5127,314.8762 C77.7747,315.6342 77.0157,316.2672 76.2387,316.7752 C75.4587,317.2852 74.5857,317.6742 73.6187,317.9432 C72.6517,318.2122 71.4507,318.3472 70.0137,318.3472" id="Fill-122" fill="#E5E5E5"></path>
                </g>
            </g>
        </g>
    </g>
</svg>