<?xml version="1.0" encoding="UTF-8"?>
<svg width="555px" height="555px" viewBox="0 0 555 555" version="1.1" xmlns="http://www.w3.org/2000/svg" xmlns:xlink="http://www.w3.org/1999/xlink">
    <!-- Generator: Sketch 47.1 (45422) - http://www.bohemiancoding.com/sketch -->
    <title>icon1_accelerate</title>
    <desc>Created with Sketch.</desc>
    <defs></defs>
    <g id="assets_desktop1920" stroke="none" stroke-width="1" fill="none" fill-rule="evenodd">
        <g id="icons" transform="translate(-84.000000, -98.000000)">
            <g id="icon1_accelerate" transform="translate(85.000000, 99.000000)">
                <path d="M298,278 C298,289.04585 289.046118,298 278.000599,298 C266.955081,298 258,289.04585 258,278 C258,266.95415 266.955081,258 278.000599,258 C289.046118,258 298,266.95415 298,278" id="Fill-1" fill="#D1D1D1"></path>
                <path d="M334,279 C334,309.375611 309.375882,334 279.000606,334 C248.624118,334 224,309.375611 224,279 C224,248.624389 248.624118,224 279.000606,224 C309.375882,224 334,248.624389 334,279 Z" id="Stroke-3" stroke="#D1D1D1" stroke-width="10"></path>
                <path d="M371,277 C371,328.915158 328.915427,371 277.0006,371 C225.085773,371 183,328.915158 183,277 C183,225.084842 225.085773,183 277.0006,183 C328.915427,183 371,225.084842 371,277 Z" id="Stroke-5" stroke="#D1D1D1" stroke-width="7"></path>
                <path d="M424,277 C424,358.185665 358.185395,424 276.999398,424 C195.813401,424 130,358.185665 130,277 C130,195.814335 195.813401,130 276.999398,130 C358.185395,130 424,195.814335 424,277 Z" id="Stroke-7" stroke="#D1D1D1" stroke-width="5"></path>
                <path d="M487,276.5 C487,392.755901 392.756169,487 276.5006,487 C160.24503,487 66,392.755901 66,276.5 C66,160.244099 160.24503,66 276.5006,66 C392.756169,66 487,160.244099 487,276.5 Z" id="Stroke-9" stroke="#D1D1D1" stroke-width="3"></path>
                <path d="M553,276.5 C553,429.205943 429.205943,553 276.5012,553 C123.794057,553 0,429.205943 0,276.5 C0,123.792856 123.794057,0 276.5012,0 C429.205943,0 553,123.792856 553,276.5 Z" id="Stroke-11" stroke="#D1D1D1"></path>
                <path d="M317.251586,473 C305.286554,473 288.987237,471.186209 279.282051,462.539319 L279.150819,462.423341 L221.176154,401.016309 C218.893431,398.743391 215.853412,392.675502 220.214184,385.38208 C221.642089,382.99438 224.780834,380.146359 231.620575,380.146359 C237.704225,380.146359 244.123782,382.389385 244.394674,382.483841 L244.549986,382.53884 L263.128414,390.860516 L263.128414,288.319775 C263.128414,279.872556 269.658736,273 277.68559,273 C285.796722,273 292.394466,279.872556 292.394466,288.319775 L292.394466,325.059495 C294.619398,319.53682 299.865086,315.647393 305.966795,315.647393 C312.59825,315.647393 318.218373,320.241054 320.0472,326.533723 C321.877231,320.241054 327.497353,315.647393 334.128808,315.647393 C342.238736,315.647393 348.83648,322.518754 348.83648,330.965972 L348.83648,341.051221 C351.125222,335.680393 356.295061,331.923682 362.290821,331.923682 C370.401952,331.923682 376.999696,338.795043 376.999696,347.243457 L376.999696,432.209441 C377.00692,432.470091 377.220022,467.207109 328.183615,472.467939 C328.037935,472.484678 323.588069,473 317.251586,473" id="Fill-13" fill="#0078D7"></path>
                <path d="M277.327565,277.073157 C283.179322,277.073157 287.920046,282.156568 287.920046,288.426748 L287.920046,368.256232 L294.829018,368.256232 L294.829018,331.271778 C294.829018,325.000397 299.570938,319.918187 305.420303,319.918187 C311.269668,319.918187 316.012784,325.000397 316.012784,331.271778 L316.012784,368.256232 L322.802161,368.256232 L322.802161,331.271778 C322.802161,325.000397 327.545277,319.918187 333.394642,319.918187 C339.242811,319.918187 343.985928,325.000397 343.985928,331.271778 L343.985928,368.256232 L350.777697,368.256232 L350.777697,347.623495 C350.777697,341.352114 355.520813,336.268703 361.368982,336.268703 C367.218347,336.268703 371.961463,341.352114 371.961463,347.623495 L371.961463,368.256232 L371.961463,369.261622 L371.961463,432.984431 C371.961463,432.984431 372.662287,464.467462 327.057332,469.41634 C327.057332,469.41634 322.759107,469.926843 316.629891,469.926843 C306.202451,469.926843 290.473388,468.446984 281.595891,460.449501 L224.076937,398.829966 C224.076937,398.829966 219.771536,394.636633 223.694234,388.001293 C225.177206,385.494422 228.279486,384.714854 231.569529,384.714854 C236.98955,384.714854 242.911868,386.83134 242.911868,386.83134 L266.888165,397.690043 L266.888165,368.256232 L266.888165,288.426748 C266.888165,282.156568 271.4782,277.073157 277.327565,277.073157 M277.327565,269 C267.138117,269 258.849025,277.714589 258.849025,288.426748 L258.849025,368.256232 L258.849025,385.194126 L246.215067,379.471686 L245.914885,379.335952 L245.606331,379.225443 C244.864845,378.961183 238.185495,376.641697 231.569529,376.641697 C222.885776,376.641697 218.735848,380.577976 216.782871,383.880031 C213.244071,389.866732 213.720057,395.035426 214.744981,398.31586 C215.744791,401.523021 217.494458,403.603471 218.26345,404.407063 L275.732175,465.971344 L275.970168,466.224794 L276.229688,466.459025 C286.817385,475.997626 304.043771,478 316.629891,478 C322.859567,478 327.379041,477.505112 327.948311,477.439047 C354.613091,474.538188 367.348705,462.963579 373.337995,453.761309 C379.821211,443.799891 380.013758,434.476301 379.999407,432.930377 L379.999407,369.261622 L379.999407,368.256232 L379.999407,347.623495 C379.999407,336.911337 371.64095,328.196747 361.368982,328.196747 C357.965324,328.196747 354.76976,329.154091 352.019087,330.824937 C351.790662,320.318182 343.524293,311.84503 333.394642,311.84503 C327.829912,311.84503 322.823688,314.403552 319.408071,318.452743 C315.991257,314.403552 310.987425,311.84503 305.420303,311.84503 C301.968807,311.84503 298.732581,312.8288 295.957989,314.541688 L295.957989,288.426748 C295.957989,277.714589 287.600729,269 277.327565,269" id="Fill-15" fill="#FFFFFF"></path>
            </g>
        </g>
    </g>
</svg>