<svg width="163px" height="172px" viewBox="0 0 163 172" version="1.1" xmlns="http://www.w3.org/2000/svg" xmlns:xlink="http://www.w3.org/1999/xlink">
    <!-- Generator: Sketch 47.1 (45422) - http://www.bohemiancoding.com/sketch -->
    <title>icon3_section_secure</title>
    <desc>Created with Sketch.</desc>
    <defs>
        <polygon id="path-1" points="101.124453 100.81295 0.396674809 100.81295 0.396674809 0.0575007194 101.124453 0.0575007194 101.124453 100.81295"></polygon>
        <path d="M54.957375,14.9012521 C47.7587752,21.2380386 38.298823,25.0837358 27.9375,25.0837358 C17.5757934,25.0837358 8.11578845,21.2377539 0.917375,14.9005483 L0.917375,0.65265283 L54.957375,0.65265283 L54.957375,14.9012521 L54.957375,14.9012521 Z" id="path-3"></path>
    </defs>
    <g id="assets_desktop1920" stroke="none" stroke-width="1" fill="none" fill-rule="evenodd">
        <g id="icons" transform="translate(-767.000000, -289.000000)">
            <g id="icon3_section_secure" transform="translate(767.000000, 289.000000)">
                <g id="Group-12">
                   <g id="gear-big"> <path d="M102.942215,47.267 C102.865069,46.9359353 102.779215,46.6086043 102.68465,46.2850072 C102.591329,45.9601655 102.48681,45.6365683 102.372337,45.3179496 C102.260352,44.9980863 102.155833,44.6757338 102.062512,44.3521367 L113.534726,31.5439137 L98.8821458,13.3241511 L83.8849015,21.6978489 C82.7439015,21.0133165 81.5792603,20.3723453 80.3884893,19.7811583 L79.3781382,2.62926619 L56.1400618,0.0740935252 L51.5188252,16.6360432 C51.1928252,16.7318777 50.8643366,16.8177554 50.5358481,16.8949209 C50.204871,16.9720863 49.878871,17.057964 49.5541153,17.1513094 C49.2281153,17.2458993 48.9070924,17.3516906 48.5860695,17.4624604 C48.2687794,17.576964 47.9465122,17.6790216 47.6217565,17.7748561 L34.8169244,6.29835971 L16.6019855,20.9548201 L24.9734664,35.9572806 C24.2866267,37.0973381 23.6483137,38.264777 23.0572832,39.4533741 L5.91117634,40.4639928 L3.35543588,63.708223 L19.9130008,68.3319281 C20.0088099,68.6580144 20.0946649,68.9853453 20.1705656,69.3139209 C20.2464664,69.6449856 20.3323214,69.9723165 20.4293748,70.2959137 C20.5226954,70.622 20.6272145,70.9431079 20.7391992,71.2629712 C20.8524282,71.5828345 20.9557031,71.9051871 21.0502679,72.2287842 L9.57680992,85.0370072 L24.2306344,103.25677 L39.2291229,94.8843165 C40.3688786,95.5688489 41.5322756,96.2085755 42.7242908,96.7997626 L43.7358863,113.951655 L66.9739626,116.508072 L71.5951992,99.9448777 C71.9187107,99.8502878 72.2484435,99.7656547 72.5769321,99.686 C72.9054206,99.6113237 73.2351534,99.525446 73.5599092,99.4296115 C73.8834206,99.3350216 74.2056878,99.2317194 74.5242221,99.119705 C74.845245,99.006446 75.1662679,98.9018993 75.4910237,98.8073094 L88.2946115,110.283806 L106.510795,95.6261007 L98.140558,80.6236403 C98.8249092,79.4835827 99.4632221,78.3186331 100.056741,77.1275468 L117.202848,76.1169281 L119.758589,52.8726978 L103.198535,48.2502374 C103.105215,47.9241511 103.01936,47.5980647 102.942215,47.267 M82.6219626,60.7460647 C82.279787,63.5302446 81.4535885,66.1103094 80.1520771,68.4875036 C78.8493214,70.8634532 77.1160466,72.9481655 74.9559855,74.7329281 C72.7959244,76.5189353 70.3086191,77.8232806 67.4940695,78.6434748 C64.6795198,79.4649137 61.8811458,79.7051223 59.1001916,79.3616115 C56.3192374,79.0181007 53.7386115,78.1954173 51.3620466,76.8910719 C48.9854817,75.5879712 46.9038099,73.8579712 45.1182756,71.6948489 C43.3339855,69.5342158 42.0299855,67.0450072 41.2087641,64.2309568 C40.388787,61.4169065 40.148642,58.619036 40.4920618,55.8348561 C40.8342374,53.0519209 41.6567031,50.4706115 42.9594588,48.0934173 C44.2647031,45.7174676 45.9967336,43.6352446 48.1555504,41.8479928 C50.3156115,40.0632302 52.8041611,38.7588849 55.6174664,37.937446 C58.432016,37.1160072 61.2303901,36.8770432 64.0113443,37.220554 C66.7935427,37.5640647 69.3729244,38.3855036 71.7494893,39.6910935 C74.1272985,40.9929496 76.2089702,42.7266835 77.9945046,44.8873165 C79.7800389,47.0491942 81.0827947,49.5359137 81.9052603,52.349964 C82.7252374,55.1665036 82.9628939,57.9656187 82.6219626,60.7460647" id="Fill-1" fill="#D1D1D1"></path>
                   </g>
                    <g id="gear-small"> <path d="M13.5051099,136.166846 L14.8041328,130.496429 L9.13521679,131.794551 L3.73879695,118.793414 L8.68976641,115.715508 L3.73879695,112.637601 L9.13521679,99.6364647 L14.8041328,100.934587 L13.5051099,95.2641698 L26.5028046,89.8675655 L29.5811405,94.8173568 L32.6594763,89.8675655 L45.6546824,95.2641698 L44.3569038,100.934587 L50.0270641,99.6364647 L55.4222397,112.637601 L50.4725145,115.715508 L55.4222397,118.793414 L50.0270641,131.794551 L44.3569038,130.496429 L45.6546824,136.166846 L32.6594763,141.56345 L29.5811405,136.612414 L26.5028046,141.56345 L13.5051099,136.166846 Z M29.5811405,110.544177 C28.8569725,110.544177 28.202484,110.673616 27.5828351,110.939961 C26.9370565,111.218753 26.3933084,111.584666 25.9217282,112.055127 C25.4501481,112.528076 25.0855756,113.071968 24.806858,113.716673 C24.5405832,114.337731 24.4111786,114.992393 24.4111786,115.715508 C24.4111786,116.438623 24.5405832,117.09204 24.806858,117.714342 C25.0855756,118.359047 25.4501481,118.901695 25.9217282,119.374645 C26.3945527,119.847594 26.9383008,120.212263 27.5828351,120.48981 C28.2037282,120.758645 28.8569725,120.888083 29.5811405,120.888083 C30.3053084,120.888083 30.9560641,120.758645 31.5744687,120.491055 C32.2227359,120.212263 32.766484,119.847594 33.2393084,119.374645 C33.7121328,118.901695 34.0779496,118.357803 34.3554229,117.714342 C34.6216977,117.093285 34.7511023,116.439868 34.7511023,115.715508 C34.7511023,114.991148 34.6216977,114.337731 34.3541786,113.715429 C34.0779496,113.073213 33.7121328,112.529321 33.2393084,112.055127 C32.7677282,111.584666 32.2239802,111.218753 31.5744687,110.938717 C30.9573084,110.673616 30.3053084,110.544177 29.5811405,110.544177 L29.5811405,110.544177 Z" id="Fill-3" fill="#0078D6"></path></g>
                    <path d="M33.8583351,93.6078504 L42.1738237,97.0603827 L40.6968695,103.511167 C41.0738847,103.858412 41.4359687,104.220591 41.7818771,104.596462 L48.2309534,103.119117 L51.6825718,111.436807 L46.0609382,114.934145 C46.0609382,115.063584 46.064671,115.195512 46.0696481,115.324951 C46.078358,115.455635 46.0820908,115.585073 46.0820908,115.715757 C46.0820908,115.84644 46.078358,115.977124 46.0696481,116.106563 C46.064671,116.237246 46.0609382,116.367929 46.0609382,116.497368 L51.6825718,119.994706 L48.2309534,128.312397 L41.7818771,126.835052 C41.4359687,127.212167 41.0738847,127.574347 40.6968695,127.921591 L42.1738237,134.371131 L33.8583351,137.823663 L30.3619229,132.199296 C30.2325183,132.199296 30.1006252,132.204275 29.9724649,132.210498 C29.8405718,132.217965 29.7111672,132.220455 29.5805183,132.220455 C29.4511137,132.220455 29.3217092,132.217965 29.189816,132.210498 C29.0604115,132.204275 28.9297626,132.199296 28.800358,132.199296 L25.3039458,137.823663 L16.987213,134.371131 L18.4641672,127.921591 C18.0871519,127.574347 17.7263122,127.212167 17.3791595,126.835052 L10.9300832,128.312397 L7.47846489,119.994706 L13.1013427,116.497368 C13.1013427,116.367929 13.0976099,116.237246 13.0913885,116.106563 C13.0839229,115.977124 13.0801901,115.84644 13.0801901,115.715757 C13.0801901,115.585073 13.0839229,115.455635 13.0913885,115.324951 C13.0976099,115.195512 13.1013427,115.063584 13.1013427,114.934145 L7.47846489,111.436807 L10.9300832,103.119117 L17.3791595,104.596462 C17.7263122,104.220591 18.0871519,103.858412 18.4641672,103.511167 L16.987213,97.0603827 L25.3039458,93.6078504 L28.800358,99.2322173 C28.9297626,99.2322173 29.0604115,99.2284835 29.189816,99.2210158 C29.3217092,99.2147928 29.4511137,99.2098144 29.5805183,99.2098144 C29.7111672,99.2098144 29.8405718,99.2147928 29.9724649,99.2210158 C30.1006252,99.2284835 30.2325183,99.2322173 30.3619229,99.2322173 L33.8583351,93.6078504 Z M29.5805183,123.881606 C30.7103198,123.881606 31.7691977,123.668778 32.762129,123.240635 C33.753816,122.813735 34.6173427,122.23126 35.356442,121.49321 C36.0942969,120.75516 36.6778618,119.89016 37.1034038,118.896965 C37.5301901,117.905016 37.7442053,116.845858 37.7442053,115.715757 C37.7442053,114.586901 37.5301901,113.525253 37.1034038,112.534548 C36.6778618,111.543843 36.0942969,110.677599 35.356442,109.938304 C34.6173427,109.200253 33.753816,108.619023 32.762129,108.190879 C31.7691977,107.76398 30.7103198,107.549908 29.5805183,107.549908 C28.4519611,107.549908 27.3918389,107.76398 26.4001519,108.190879 C25.4084649,108.619023 24.5449382,109.200253 23.8058389,109.938304 C23.0667397,110.677599 22.4831748,111.543843 22.0588771,112.534548 C21.6320908,113.525253 21.4168313,114.586901 21.4168313,115.715757 C21.4168313,116.845858 21.6320908,117.905016 22.0588771,118.896965 C22.4831748,119.89016 23.0667397,120.75516 23.8058389,121.49321 C24.5449382,122.23126 25.4084649,122.813735 26.4001519,123.240635 C27.3918389,123.668778 28.4519611,123.881606 29.5805183,123.881606 L29.5805183,123.881606 Z M31.4568847,86.1265338 L29.5805183,89.1484331 L27.7041519,86.1265338 L23.0082588,88.0768288 L14.6940145,91.5306058 L10.0254954,93.4684547 L10.8218313,96.9521022 L7.34035038,96.1543108 L5.40177023,100.824066 L1.94890763,109.141757 L0.000373282443,113.838894 L3.02022824,115.715757 L0.000373282443,117.593865 L1.94890763,122.291001 L5.40177023,130.608692 L7.34035038,135.277203 L10.8218313,134.480656 L10.0254954,137.964304 L14.6940145,139.900908 L23.0082588,143.354685 L27.7041519,145.30498 L29.5805183,142.284325 L31.4568847,145.30498 L36.1540221,143.354685 L44.4695107,139.900908 L49.1367855,137.963059 L48.3404496,134.480656 L51.8219305,135.277203 L53.7605107,130.608692 L57.2133733,122.291001 L59.1619076,117.593865 L56.1408084,115.715757 L59.1619076,113.838894 L57.2133733,109.141757 L53.7605107,100.824066 L51.8219305,96.1543108 L48.3404496,96.9521022 L49.1367855,93.4684547 L44.4682664,91.5306058 L36.1527779,88.0768288 L31.4568847,86.1265338 Z M29.5805183,117.893814 C29.2682053,117.893814 29.0106405,117.845275 28.7704954,117.743217 C28.4731137,117.615023 28.2391901,117.460692 28.0376176,117.259066 C27.836045,117.056196 27.6829992,116.825944 27.5573275,116.530973 C27.4528084,116.288275 27.4042817,116.029397 27.4042817,115.715757 C27.4042817,115.402117 27.4528084,115.144483 27.5573275,114.900541 C27.6829992,114.606814 27.8372893,114.375318 28.0388618,114.172447 C28.2391901,113.972066 28.4731137,113.817735 28.7704954,113.689541 C29.0106405,113.587483 29.2682053,113.538944 29.5805183,113.538944 C29.8928313,113.538944 30.1516405,113.587483 30.3955183,113.690786 C30.6891672,113.817735 30.9218466,113.972066 31.1234191,114.173692 C31.3262359,114.376563 31.4792817,114.606814 31.6049534,114.90303 C31.7082282,115.144483 31.7592435,115.402117 31.7592435,115.715757 C31.7592435,116.029397 31.7094725,116.288275 31.6049534,116.529728 C31.4792817,116.825944 31.3262359,117.056196 31.1234191,117.259066 C30.9218466,117.460692 30.6904115,117.615023 30.3955183,117.740728 C30.1516405,117.845275 29.8940756,117.893814 29.5805183,117.893814 L29.5805183,117.893814 Z" id="Fill-5" fill="#FFFFFF"></path>
                    <g id="Group-9" transform="translate(60.969466, 71.187050)">
                        <mask id="mask-2" fill="white">
                            <use xlink:href="#path-1"></use>
                        </mask>
                        <g id="Clip-8"></g>
                        <path d="M101.124453,50.4353496 C101.124453,78.2584791 78.5757053,100.813199 50.759942,100.813199 C22.9454229,100.813199 0.396674809,78.2584791 0.396674809,50.4353496 C0.396674809,22.6134647 22.9454229,0.0575007194 50.759942,0.0575007194 C78.5757053,0.0575007194 101.124453,22.6134647 101.124453,50.4353496" id="Fill-7" fill="#FFFFFF" mask="url(#mask-2)"></path>
                    </g>
                    <path d="M156.935778,121.6224 C156.935778,146.595386 136.69516,166.840119 111.73003,166.840119 C86.7636557,166.840119 66.525526,146.595386 66.525526,121.6224 C66.525526,96.6494144 86.7636557,76.4046806 111.73003,76.4046806 C136.69516,76.4046806 156.935778,96.6494144 156.935778,121.6224" id="Fill-10" fill="#0078D6"></path>
                </g>
                <g id="Group-18" transform="translate(85.000000, 97.000000)">
                    <path d="M27.970375,36.2089698 C37.917875,36.2089698 45.982875,28.1744038 45.982875,18.2631962 C45.982875,11.0069321 41.640375,4.79172453 35.420375,1.96493208 C33.145375,0.928856604 30.636625,0.317422642 27.970375,0.317422642 C25.305375,0.317422642 22.796625,0.928856604 20.520375,1.96493208 C14.300375,4.79172453 9.956625,11.0069321 9.956625,18.2631962 C9.956625,28.1744038 18.021625,36.2089698 27.970375,36.2089698" id="Fill-13" fill="#FFFFFF"></path>
                    <g id="Group-17" transform="translate(0.000000, 39.849057)">
                        <mask id="mask-4" fill="white">
                            <use xlink:href="#path-3"></use>
                        </mask>
                        <g id="Clip-16"></g>
                        <path d="M27.937375,0.65265283 C13.014875,0.65265283 0.917375,12.7045019 0.917375,27.5719358 L54.957375,27.5719358 C54.957375,12.7045019 42.859875,0.65265283 27.937375,0.65265283" id="Fill-15" fill="#FFFFFF" mask="url(#mask-4)"></path>
                    </g>
                </g>
            </g>
        </g>
    </g>
    </svg>
